<svg xmlns="http://www.w3.org/2000/svg" width="332.66271" height="508.21611" viewBox="0 0 332.66271 508.21611">
  <defs>
    <style>
      .cls-1 {
        fill: #7971ea;
      }
    </style>
  </defs>
  <title>music_one</title>
  <g id="Слой_2" data-name="Слой 2">
    <g id="Layer_1" data-name="Layer 1">
      <path class="cls-1" d="M283.27485,0H49.39021A49.44656,49.44656,0,0,0,0,49.39021V440.00172A49.46807,49.46807,0,0,0,34.49316,487.0832v3.64263a17.48918,17.48918,0,0,0,17.49027,17.49028H90.62062a17.48919,17.48919,0,0,0,17.49028-17.49028v-1.33394H224.55183v1.33394a17.48768,17.48768,0,0,0,17.49028,17.49028h38.63951a17.48768,17.48768,0,0,0,17.49028-17.49028V487.0832a49.47115,49.47115,0,0,0,34.49081-47.08148V49.39021A49.44306,49.44306,0,0,0,283.27485,0ZM166.33252,203.79571A74.15545,74.15545,0,1,1,240.488,129.64027,74.2394,74.2394,0,0,1,166.33252,203.79571Zm0,15.56164A111.24385,111.24385,0,1,1,55.08865,330.6012,111.3681,111.3681,0,0,1,166.33252,219.35735ZM227.22124,330.6012a60.88872,60.88872,0,1,1-60.88872-60.88872A60.95678,60.95678,0,0,1,227.22124,330.6012ZM204.58052,129.64a38.24682,38.24682,0,1,1-38.24535-38.24533A38.29011,38.29011,0,0,1,204.58052,129.64Z"/>
    </g>
  </g>
</svg>
