<svg xmlns="http://www.w3.org/2000/svg" width="511.66511" height="511.66511" viewBox="0 0 511.66511 511.66511">
  <defs>
    <style>
      .cls-1 {
        fill: #7971ea;
      }
    </style>
  </defs>
  <title>music_four</title>
  <g id="Слой_2" data-name="Слой 2">
    <g id="Layer_1" data-name="Layer 1">
      <path class="cls-1" d="M463.6965,0H47.9686A47.96861,47.96861,0,0,0,0,47.9686V463.6965a47.96861,47.96861,0,0,0,47.9686,47.96861H463.6965a47.96861,47.96861,0,0,0,47.96861-47.96861V47.9686A47.96861,47.96861,0,0,0,463.6965,0ZM103.624,492.60146H51.54119a32.47754,32.47754,0,0,1-32.47754-32.47755V51.54119A32.47754,32.47754,0,0,1,51.54119,19.06365H69.79984v253.681a16.91207,16.91207,0,0,0,16.91207,16.91206H103.624Zm135.29652,0H137.4481V289.65668h16.91206a16.91207,16.91207,0,0,0,16.91207-16.91206V19.06365h33.82413v253.681a16.91206,16.91206,0,0,0,16.91206,16.91206h16.91207Zm135.29652,0H272.74462V289.65668h16.91206a16.91207,16.91207,0,0,0,16.91207-16.91206V19.06365h33.82413v253.681a16.91206,16.91206,0,0,0,16.91206,16.91206H374.217Zm118.38445-32.47755a32.47754,32.47754,0,0,1-32.47755,32.47755H408.04114V289.65668H424.9532a16.91207,16.91207,0,0,0,16.91207-16.91206V19.06365h18.25864a32.47754,32.47754,0,0,1,32.47755,32.47754Z"/>
    </g>
  </g>
</svg>
