<svg xmlns="http://www.w3.org/2000/svg" width="312.75152" height="512" viewBox="0 0 312.75152 512">
  <defs>
    <style>
      .cls-1 {
        fill: #7971ea;
      }

      .cls-2 {
        fill: #fff;
      }
    </style>
  </defs>
  <title>music_three</title>
  <g id="Слой_2" data-name="Слой 2">
    <g id="Layer_1" data-name="Layer 1">
      <g>
        <path class="cls-1" d="M156.37818,0A106.61592,106.61592,0,0,0,49.88547,106.49271V301.95218a106.49271,106.49271,0,1,0,212.98541,0V106.49271A106.61583,106.61583,0,0,0,156.37818,0Zm83.83468,301.95218a83.83469,83.83469,0,0,1-167.66937,0V222.7737H240.21286Zm0-101.8365H72.54349v-93.623a83.83469,83.83469,0,1,1,167.66937,0Z"/>
        <path class="cls-1" d="M262.87088,106.49271V301.95218a106.49271,106.49271,0,1,1-212.98541,0V106.49271a106.49271,106.49271,0,1,1,212.98541,0Z"/>
        <path class="cls-2" d="M128.81,148.76357h55.13157a11.329,11.329,0,0,0,0-22.658H128.81a11.329,11.329,0,1,0,0,22.658Z"/>
        <path class="cls-2" d="M128.81,106.54087h55.13157a11.329,11.329,0,0,0,0-22.658H128.81a11.329,11.329,0,1,0,0,22.658Z"/>
        <path class="cls-1" d="M301.42251,290.624a11.331,11.331,0,0,0-11.329,11.329c0,73.7315-59.98623,133.71773-133.71774,133.71773S22.658,375.68455,22.658,301.95305a11.329,11.329,0,1,0-22.658,0c0,74.76262,52.74628,137.43064,122.97288,152.77349V512h67.69527l-.88951-57.27346c70.231-15.34285,122.97288-78.01087,122.97288-152.77349A11.32816,11.32816,0,0,0,301.42251,290.624Z"/>
        <path class="cls-2" d="M156.37576,360.8285a58.94507,58.94507,0,0,0,58.87988-58.87545,11.329,11.329,0,1,0-22.658,0,36.26322,36.26322,0,0,1-36.22186,36.21743,11.329,11.329,0,0,0,0,22.658Z"/>
        <path class="cls-2" d="M203.92221,274.16156a11.33949,11.33949,0,1,0-8.00554-3.319A11.41132,11.41132,0,0,0,203.92221,274.16156Z"/>
        <rect class="cls-2" x="45.96651" y="200.11568" width="220.82333" height="22.65802"/>
      </g>
    </g>
  </g>
</svg>
