<svg xmlns="http://www.w3.org/2000/svg" width="512" height="384" viewBox="0 0 512 384">
  <defs>
    <style>
      .cls-1 {
        fill: #7971ea;
      }
    </style>
  </defs>
  <title>music_two</title>
  <g id="Слой_2" data-name="Слой 2">
    <g id="Layer_1" data-name="Layer 1">
      <g>
        <path class="cls-1" d="M192,128a64,64,0,1,0,64,64A64.06957,64.06957,0,0,0,192,128Zm0,85.333A21.333,21.333,0,1,1,213.333,192,21.354,21.354,0,0,1,192,213.333Z"/>
        <path class="cls-1" d="M469.333,0H42.667A42.71553,42.71553,0,0,0,0,42.667V341.334A42.71533,42.71533,0,0,0,42.667,384H469.334A42.71533,42.71533,0,0,0,512,341.333V42.667A42.71553,42.71553,0,0,0,469.333,0ZM192,341.333c-82.333,0-149.333-66.99-149.333-149.333S109.667,42.667,192,42.667,341.333,109.656,341.333,192,274.333,341.333,192,341.333Zm234.667,0A21.333,21.333,0,1,1,448,320,21.354,21.354,0,0,1,426.667,341.333ZM412.438,146.281c-4.107,1.456-7.104,4.988-7.104,9.345V288a10.6593,10.6593,0,0,1-3.124,7.539l-42.668,42.669a10.66564,10.66564,0,1,1-15.084-15.083L384,283.583V156.069c0-4.622-3.177-8.357-7.522-9.938-25.214-9.172-41.608-36.842-32.689-66.516a52.41584,52.41584,0,0,1,35.984-34.922C415.561,34.938,448,61.753,448,96A53.41294,53.41294,0,0,1,412.438,146.281Z"/>
      </g>
    </g>
  </g>
</svg>
