<svg width="18" height="19" viewBox="0 0 18 19" fill="none" xmlns="http://www.w3.org/2000/svg">
<path d="M12.6805 6.55099L11.1685 6.49634L10.8369 15.3051L12.3489 15.3597L12.6805 6.55099Z" fill="#7971EA"/>
<path d="M9.75699 6.52319H8.24414V15.3287H9.75699V6.52319Z" fill="#7971EA"/>
<path d="M7.15915 15.3009L6.82758 6.49219L5.31555 6.54684L5.64713 15.3556L7.15915 15.3009Z" fill="#7971EA"/>
<path d="M0 2.85205V4.34057H1.57502L2.82509 18.3212C2.84168 18.5065 2.92826 18.679 3.06775 18.8047C3.20724 18.9303 3.38951 18.9999 3.57861 18.9998H14.3949C14.5841 18.9999 14.7665 18.9302 14.906 18.8044C15.0455 18.6786 15.132 18.5059 15.1484 18.3204L16.3985 4.33976H18V2.85205H0ZM13.7019 17.5121H4.27245L3.0945 4.34057H14.8806L13.7019 17.5121Z" fill="#7971EA"/>
<path d="M11.4703 0H6.53222C6.19789 0.000216061 5.87731 0.130988 5.6409 0.363592C5.40449 0.596197 5.27158 0.911614 5.27136 1.24057V3.59691H6.78089V1.48852H11.2183V3.59691H12.7312V1.24057C12.7309 0.911614 12.598 0.596197 12.3616 0.363592C12.1252 0.130988 11.8047 0.000216061 11.4703 0V0Z" fill="#7971EA"/>
</svg>
