<svg xmlns="http://www.w3.org/2000/svg" xmlns:xlink="http://www.w3.org/1999/xlink" viewBox="0 0 16 21">
  <defs>
    <style>
      .cls-1 {
        clip-path: url(#clip-map);
        fill: #7971EA
      }

      .cls-2 {
        fill: none;
      }
    </style>
    <clipPath id="clip-map">
      <rect width="16" height="21"/>
    </clipPath>
  </defs>
  <g id="map" class="cls-1">
    <g id="round-place-24px" transform="translate(-4 -1)">
      <g id="Bounding_Boxes">
        <path id="Path_81" data-name="Path 81" class="cls-2" d="M0,0H24V24H0Z"/>
      </g>
      <g id="Rounded">
        <path id="Path_82" data-name="Path 82" d="M12,2A7,7,0,0,0,5,9c0,4.17,4.42,9.92,6.24,12.11a.993.993,0,0,0,1.53,0C14.58,18.92,19,13.17,19,9A7,7,0,0,0,12,2Zm0,9.5A2.5,2.5,0,1,1,14.5,9,2.5,2.5,0,0,1,12,11.5Z"/>
      </g>
    </g>
  </g>
</svg>
