<svg width="25" height="25" viewBox="0 0 25 25" fill="none" xmlns="http://www.w3.org/2000/svg">
<path d="M17.8171 15.5073C17.7639 15.4653 17.7012 15.4328 17.6329 15.4118C17.5646 15.3908 17.492 15.3819 17.4196 15.3853C17.3471 15.3888 17.2762 15.4048 17.211 15.4322C17.1459 15.4596 17.088 15.4979 17.0406 15.5448C16.4758 16.0987 15.7782 16.5428 14.995 16.8471C14.2117 17.1514 13.3609 17.3089 12.5002 17.3089C11.6394 17.3089 10.7887 17.1514 10.0054 16.8471C9.22211 16.5428 8.52453 16.0987 7.95973 15.5448C7.91238 15.4979 7.85442 15.4596 7.78931 15.4322C7.72421 15.4048 7.65329 15.3888 7.5808 15.3853C7.50832 15.3819 7.43575 15.3908 7.36743 15.4118C7.29912 15.4328 7.23646 15.4653 7.18321 15.5073C7.07424 15.5937 7.00885 15.7127 7.00084 15.8394C6.99282 15.966 7.04279 16.0904 7.14023 16.1862C7.80686 16.8402 8.63032 17.3646 9.55499 17.7239C10.4797 18.0833 11.484 18.2692 12.5002 18.2692C13.5164 18.2692 14.5207 18.0833 15.4454 17.7239C16.37 17.3646 17.1935 16.8402 17.8601 16.1862C17.9573 16.0903 18.0072 15.966 17.9992 15.8394C17.9911 15.7128 17.9259 15.5938 17.8171 15.5073Z" fill="#7971EA"/>
<path d="M12.5 0C9.14396 0.0457893 5.94351 1.38735 3.60042 3.73051C1.25733 6.07367 -0.0371489 9.22718 0.000822896 12.4996C-0.0373952 15.7721 1.25698 18.9258 3.60009 21.2692C5.94321 23.6125 9.1438 24.9542 12.5 25C15.8562 24.9542 19.0568 23.6125 21.3999 21.2692C23.743 18.9258 25.0374 15.7721 24.9992 12.4996C25.0371 9.22718 23.7427 6.07367 21.3996 3.73051C19.0565 1.38735 15.856 0.0457893 12.5 0V0ZM12.5 23.9125C9.43562 23.871 6.51322 22.6462 4.37377 20.5066C2.23432 18.3671 1.0525 15.4875 1.08751 12.4996C1.0525 9.51157 2.23432 6.63202 4.37377 4.49248C6.51322 2.35294 9.43562 1.12808 12.5 1.08657C15.5645 1.12785 18.4872 2.3526 20.6268 4.49216C22.7665 6.63173 23.9484 9.51141 23.9134 12.4996C23.9484 15.4877 22.7665 18.3674 20.6268 20.5069C18.4872 22.6465 15.5645 23.8713 12.5 23.9125Z" fill="#7971EA"/>
<path d="M17 8.65385C16.1945 8.66264 15.4264 8.91998 14.8641 9.36944C14.3018 9.8189 13.9913 10.4238 14.0005 11.0514C13.9972 11.1144 14.0102 11.1773 14.0389 11.2363C14.0675 11.2952 14.1112 11.3491 14.1672 11.3946C14.2232 11.4401 14.2904 11.4763 14.3649 11.501C14.4393 11.5257 14.5194 11.5385 14.6003 11.5385C14.6812 11.5385 14.7613 11.5257 14.8357 11.501C14.9102 11.4763 14.9774 11.4401 15.0334 11.3946C15.0895 11.3491 15.1331 11.2952 15.1618 11.2363C15.1904 11.1773 15.2034 11.1144 15.2001 11.0514C15.2001 10.6795 15.3897 10.3227 15.7273 10.0597C16.0648 9.7967 16.5226 9.64894 17 9.64894C17.4774 9.64894 17.9352 9.7967 18.2727 10.0597C18.6103 10.3227 18.7999 10.6795 18.7999 11.0514C18.7966 11.1144 18.8096 11.1773 18.8382 11.2363C18.8669 11.2952 18.9105 11.3491 18.9666 11.3946C19.0226 11.4401 19.0898 11.4763 19.1643 11.501C19.2387 11.5257 19.3188 11.5385 19.3997 11.5385C19.4806 11.5385 19.5607 11.5257 19.6351 11.501C19.7095 11.4763 19.7768 11.4401 19.8328 11.3946C19.8888 11.3491 19.9325 11.2952 19.9611 11.2363C19.9898 11.1773 20.0028 11.1144 19.9995 11.0514C20.0087 10.4238 19.6982 9.8189 19.1359 9.36944C18.5736 8.91998 17.8055 8.66264 17 8.65385Z" fill="#7971EA"/>
<path d="M9.79959 11.0517C9.79626 11.1146 9.8093 11.1775 9.83793 11.2364C9.86657 11.2953 9.91021 11.3492 9.96622 11.3946C10.0222 11.4401 10.0895 11.4763 10.1639 11.501C10.2383 11.5257 10.3184 11.5385 10.3993 11.5385C10.4802 11.5385 10.5603 11.5257 10.6347 11.501C10.7091 11.4763 10.7763 11.4401 10.8323 11.3946C10.8884 11.3492 10.932 11.2953 10.9606 11.2364C10.9893 11.1775 11.0023 11.1146 10.999 11.0517C11.0094 10.7398 10.9396 10.4294 10.7935 10.1388C10.6475 9.84829 10.4283 9.58347 10.1488 9.35999C9.86927 9.13651 9.53513 8.95888 9.16608 8.8376C8.79703 8.71632 8.40055 8.65385 8 8.65385C7.59945 8.65385 7.20297 8.71632 6.83392 8.8376C6.46487 8.95888 6.13073 9.13651 5.85122 9.35999C5.5717 9.58347 5.35247 9.84829 5.20645 10.1388C5.06043 10.4294 4.99058 10.7398 5.00102 11.0517C4.99769 11.1146 5.01073 11.1775 5.03936 11.2364C5.068 11.2953 5.11164 11.3492 5.16765 11.3946C5.22367 11.4401 5.2909 11.4763 5.36533 11.501C5.43975 11.5257 5.51981 11.5385 5.60071 11.5385C5.68162 11.5385 5.76168 11.5257 5.8361 11.501C5.91052 11.4763 5.97776 11.4401 6.03378 11.3946C6.08979 11.3492 6.13343 11.2953 6.16207 11.2364C6.1907 11.1775 6.20374 11.1146 6.20041 11.0517C6.20041 10.8676 6.24696 10.6853 6.3374 10.5152C6.42783 10.3451 6.56039 10.1906 6.7275 10.0604C6.89461 9.93025 7.09299 9.82699 7.31133 9.75655C7.52966 9.6861 7.76367 9.64984 8 9.64984C8.23633 9.64984 8.47034 9.6861 8.68867 9.75655C8.90701 9.82699 9.10539 9.93025 9.2725 10.0604C9.43961 10.1906 9.57217 10.3451 9.6626 10.5152C9.75304 10.6853 9.79959 10.8676 9.79959 11.0517Z" fill="#7971EA"/>
</svg>
