<svg xmlns="http://www.w3.org/2000/svg" width="483.85513" height="382.26088" viewBox="0 0 483.85513 382.26088">
  <defs>
    <style>
      .cls-1 {
        fill: #7971ea;
      }
    </style>
  </defs>
  <title>camera</title>
  <g id="Слой_2" data-name="Слой 2">
    <g id="Capa_1" data-name="Capa 1">
      <g>
        <path class="cls-1" d="M452.85818,55.25813a7.138,7.138,0,0,0,.756-3.02769c0-6.4343-4.91415-10.59693-11.34037-10.59693H415.813a11.14484,11.14484,0,0,0-11.34036,11.35385c0,1.51385.378,0,.756,3.78462H351.173l-16.6325-34.06337C328.4923,10.21892,312.23779,0,298.62937,0H185.22582c-13.98644,0-29.86293,10.21892-35.91112,22.70861L132.68218,56.77108H117.18367V39.73985c0-2.27077-1.512-1.89276-3.78012-1.89276H37.80118c-2.26807,0-3.78012-.37891-3.78012,1.89276V54.87922A33.90056,33.90056,0,0,0,0,88.9417v257.364c0,18.924,15.12047,35.95523,34.02106,35.95523h415.813c18.90059,0,34.02105-17.03124,34.02105-35.95523V88.94259A34.06512,34.06512,0,0,0,452.85818,55.25813ZM181.44569,34.44138a3.57348,3.57348,0,0,1,3.78011-3.78462H298.62934a3.5735,3.5735,0,0,1,3.78013,3.78462V49.58076a3.57348,3.57348,0,0,1-3.78013,3.78462H185.22579a3.57348,3.57348,0,0,1-3.78012-3.78462V34.44138Zm-128.524,96.51183a22.70863,22.70863,0,1,1,22.68071-22.70862A22.76143,22.76143,0,0,1,52.92166,130.95321Zm30.241,18.924A11.35387,11.35387,0,1,1,94.503,138.52334,11.14484,11.14484,0,0,1,83.16261,149.8772Zm158.765,200.592c-72.95629,0-132.30415-59.42075-132.30415-132.467s59.34786-132.467,132.30415-132.467,132.30414,59.42076,132.30414,132.46705S314.88385,350.46918,241.92757,350.46918Z"/>
        <path class="cls-1" d="M241.92757,112.02921c-58.21382,0-105.84332,47.688-105.84332,105.97383s47.62948,105.97382,105.84332,105.97382,105.84332-47.688,105.84332-105.97382S300.14141,112.02921,241.92757,112.02921Zm0,162.74491A56.77112,56.77112,0,1,1,298.62934,218.003,56.66081,56.66081,0,0,1,241.92757,274.77412Z"/>
      </g>
    </g>
  </g>
</svg>
