<svg xmlns="http://www.w3.org/2000/svg" width="451.60042" height="264.60184" viewBox="0 0 451.60042 264.60184">
  <defs>
    <style>
      .cls-1 {
        fill: #7971ea;
      }

      .cls-2 {
        fill: #fff;
      }
    </style>
  </defs>
  <title>dog_walking</title>
  <g id="Слой_2" data-name="Слой 2">
    <g id="Capa_1" data-name="Capa 1">
      <g>
        <g>
          <path class="cls-1" d="M3.58346,177.21779a10.883,10.883,0,0,1-3.54523,1.37,69.17946,69.17946,0,0,1,1.07612-8.81c1.54686-8.36,6.35045-8.15,12.67182-11.68C11.759,167.85781,8.28127,174.4078,3.58346,177.21779Z"/>
          <path class="cls-1" d="M224.13538,122.64779l-.00961-.01a105.00906,105.00906,0,0,0-8.86741-18.18006,95.764,95.764,0,0,0-12.95047-16.67c-16.313-16.75-38.12123-26.47-62.32167-28-2.22893-.15-4.48671-.22-6.75388-.22-85.46546-.07-92.77663,56.78-103.37338,79.09a55.40864,55.40864,0,0,1-8.23342,13.06.80634.80634,0,0,1-.00938.15c-1.98875,16.31-6.97506,26.91-14.81443,31.5A17.1794,17.1794,0,0,1,0,185.6578a57.22426,57.22426,0,0,0,10.01061,29.62c3.18941,1.93,9.48217,5.2,15.49627,5.2a12.91575,12.91575,0,0,0,5.90856-1.32c5.97564-3.02,9.35739-11.53,10.04908-25.27a3.41106,3.41106,0,0,1,3.53537-3.31006,3.4511,3.4511,0,0,1,3.18,3.68005c-.83594,16.49-5.49528,26.99-13.8441,31.21a19.27174,19.27174,0,0,1-8.752,1.99,26.61512,26.61512,0,0,1-5.72584-.65c26.98643,25.71,75.791,36.57,111.011,36.57q2.82446,0,5.62006-.09h.01924c44.16419-1.39,82.02624-19.51,92.67084-65.46a.03755.03755,0,0,0,.00962-.03A202.76041,202.76041,0,0,0,224.13538,122.64779Zm-121.61717,29.11a3.27517,3.27517,0,0,1-4.75574-.16c-8.30051-9.21-16.16873-12.95-23.38374-11.08-7.4648,1.93005-11.84573,9.24005-12.22031,10.66a3.36561,3.36561,0,0,1-3.27619,2.81,2.90424,2.90424,0,0,1-.65323-.07,3.51864,3.51864,0,0,1-2.66121-4.12c.615-3.3,6.38869-12.85,16.3803-15.85,6.869-2.06,17.77329-1.51,30.71413,12.86A3.59773,3.59773,0,0,1,102.51821,151.75783Z"/>
        </g>
        <path class="cls-1" d="M215.25836,104.45778l-20.94371-12.28-52.82965-30.98c-.49021.2-.99919-.32-1.49878-1.41-3.939-8.69-7.06137-53.59,5.17817-59.35,12.87376-6.05,49.24643,52.06,64.05124,84.1a.72924.72924,0,0,1,.03824.1c.00961.01.01923.02.01923.03C214.05746,95.04781,216.55542,102.6578,215.25836,104.45778Z"/>
        <g>
          <path class="cls-1" d="M229.18877,197.79781a.03755.03755,0,0,1-.00962.03,196.94342,196.94342,0,0,1-20.14623,66.32c-25.61266.59-48.12246.87-72.52461-.86h-.01924c-48.43934-3.43-20.73237-124.46,57.82558-171.11q3.90561-2.325,7.99324-4.39,3.38667-1.72494,6.89789-3.25h.00985a.72924.72924,0,0,1,.03824.1c.00961.01.01923.02.01923.03a166.92764,166.92764,0,0,1,14.85267,37.97l.00961.01A202.76041,202.76041,0,0,1,229.18877,197.79781Z"/>
          <path class="cls-1" d="M422.39892,227.88784a2.86855,2.86855,0,0,0,.97034-.16c-9.35739,17.54-29.86882,27.81-58.10422,32.55h-.00962a16.61663,16.61663,0,0,1-10.26064-6.53c-8.58877-11.61-4.47686-33.61-4.40955-33.97a3.64875,3.64875,0,0,0,.06708-.72,3.47819,3.47819,0,0,0-2.68982-3.41,3.37634,3.37634,0,0,0-3.96789,2.73c-.20171,1.03-4.82282,25.43,5.65876,39.63a24.76989,24.76989,0,0,0,3.59308,3.9,301.71445,301.71445,0,0,1-34.30721,1.55,19.19843,19.19843,0,0,0,6.2639-6.71c3.151-5.85,2.45926-12.9-2.05607-20.97-7.13807-12.76-20.28063-19.79-38.01568-20.32a85.22992,85.22992,0,0,0-24.27714,2.95,3.53187,3.53187,0,0,0-2.29625,4.34,3.35158,3.35158,0,0,0,4.16,2.39c.40342-.12006,40.15783-11.7,54.61669,14.16,3.22812,5.77,3.90057,10.49,1.99837,14.02-3.33366,6.21-13.98811,8.86-21.36637,9.81h-.01923c-26.1988-.31-48.27609.07-68.067.52,20.23278-18.29,41.1284-132.55-8.55992-183.68a123.98017,123.98017,0,0,1,28.50444-5.52c68.79714-5.09,126.89174,13.66,157.22168,58.65a122.33463,122.33463,0,0,1,13.43083,26.47v.01a1.109,1.109,0,0,1,.06708.16.19191.19191,0,0,0-.10555.01,3.55053,3.55053,0,0,0,.10555,1.73,106.60868,106.60868,0,0,1,2.93023,11.79v.02a93.37626,93.37626,0,0,1-.8357,39.83v.02c-.56691,2.23-1.13381,4.09-1.64279,5.57995a41.41806,41.41806,0,0,1-1.58532,4.07,3.56706,3.56706,0,0,0,1.45069,4.71A3.16891,3.16891,0,0,0,422.39892,227.88784Z"/>
        </g>
        <g>
          <path class="cls-2" d="M209.25387,84.63784a.47493.47493,0,0,0-.04809-.1s0-.01.00985,0A.72924.72924,0,0,1,209.25387,84.63784Z"/>
          <path class="cls-2" d="M209.03292,264.14779c6.65771-.16,13.5366-.33,20.70353-.49C227.93041,263.75783,209.17717,264.82778,209.03292,264.14779Z"/>
          <path class="cls-2" d="M221.32054,79.96779a127.04229,127.04229,0,0,0-12.10491,4.57c.74916-.92,12.08568-4.59,12.08568-4.59Z"/>
        </g>
        <path class="cls-1" d="M451.30678,253.48781a7.36675,7.36675,0,0,1-6.78249,6.86c-15.15054.59-52.8395,1.82-75.60848.42a24.1141,24.1141,0,0,1-3.65077-.49h-.00962a16.61663,16.61663,0,0,1-10.26064-6.53c-8.58877-11.61-4.47686-33.61-4.40955-33.97a3.64875,3.64875,0,0,0,.06708-.72l70.344-.34a41.41806,41.41806,0,0,1-1.58532,4.07,3.56706,3.56706,0,0,0,1.45069,4.71,3.16891,3.16891,0,0,0,1.53724.39,2.86855,2.86855,0,0,0,.97034-.16,3.32015,3.32015,0,0,0,2.01736-1.73,40.109,40.109,0,0,0,1.58533-3.82c.10555,0,.21133,0,.32673-.01,8.137-.71,14.27614,1.06,18.2438,5.26C451.71045,233.92782,452.07541,245.18782,451.30678,253.48781Z"/>
        <g>
          <path class="cls-1" d="M422.6391,213.11782l.8357-39.83A93.37626,93.37626,0,0,1,422.6391,213.11782Z"/>
          <path class="cls-2" d="M427.241,160.31783a20.35875,20.35875,0,0,0-6.69641-.58.19191.19191,0,0,0-.10555.01,1.41243,1.41243,0,0,1,.03847-.17v-.01a3.4561,3.4561,0,0,1,2.23854-2.5,3.3384,3.3384,0,0,1,4.22707,2.26C427.04865,159.6578,427.14481,159.98781,427.241,160.31783Z"/>
        </g>
        <path class="cls-1" d="M434.68655,162.88784a41.16258,41.16258,0,0,0-7.44557-2.57,20.35875,20.35875,0,0,0-6.69641-.58.19191.19191,0,0,0-.10555.01,9.93993,9.93993,0,0,0-4.87091,1.72c-5.87947,4.21-8.59838-15.37-9.22275-23.92-.1154-1.64-.50921-5.07.7013-4.45,4.10229,2.1,14.63172,7.64,22.01,15.24,5.07262,5.22,7.09023,9.1,7.83,11.71C437.38622,161.79781,436.06992,163.51778,434.68655,162.88784Z"/>
      </g>
    </g>
  </g>
</svg>
