<svg xmlns="http://www.w3.org/2000/svg" width="474.09466" height="481.6309" viewBox="0 0 474.09466 481.6309">
  <defs>
    <style>
      .cls-1 {
        fill: #7971ea;
      }
    </style>
  </defs>
  <title>event</title>
  <g id="Слой_2" data-name="Слой 2">
    <g id="Capa_1" data-name="Capa 1">
      <g>
        <path class="cls-1" d="M181.77211,310.073l-7.38958,43.88987a16.00287,16.00287,0,0,0,23.19518,16.86292l39.46-20.59821,39.46,20.602a16.00952,16.00952,0,0,0,23.20679-16.86292l-7.38187-43.88986,31.77327-31.16746a16.01064,16.01064,0,0,0-8.86366-27.28163l-44.02877-6.52908L251.3731,205.24122a16.01816,16.01816,0,0,0-28.68623,0l-19.811,39.85744-44.02878,6.52522a16.01652,16.01652,0,0,0-8.86364,27.28164Z"/>
        <path class="cls-1" d="M426.265,51.20227H375.8499V23.23763A23.23776,23.23776,0,0,0,352.60843,0h-3.68515A23.23366,23.23366,0,0,0,325.6895,23.23763V51.20227H147.81092V23.23763A23.23612,23.23612,0,0,0,124.57715,0h-3.689A23.23364,23.23364,0,0,0,97.65437,23.23763V51.20227H47.82583A47.88036,47.88036,0,0,0,0,99.0281v334.777A47.89028,47.89028,0,0,0,47.82583,481.6309h378.443a47.89027,47.89027,0,0,0,47.82582-47.82582V99.0281A47.88862,47.88862,0,0,0,426.265,51.20227ZM420.0253,427.5654H54.06549V166.96209H420.0253Z"/>
      </g>
    </g>
  </g>
</svg>
