<svg width="1145" height="1080" viewBox="0 0 1145 1080" fill="none" xmlns="http://www.w3.org/2000/svg">
<g clip-path="url(#clip0)">
<path d="M1010.94 134.535C1047.35 134.535 1076.87 104.418 1076.87 67.2676C1076.87 30.1167 1047.35 0 1010.94 0C974.521 0 945 30.1167 945 67.2676C945 104.418 974.521 134.535 1010.94 134.535Z" fill="#C7C7FF"/>
<path d="M1078.05 539.831H849.805C850.143 539.831 850.481 539.831 850.819 539.831C809.228 539.493 775.753 509.07 775.753 472.225C775.753 453.634 784.206 436.732 798.07 424.563C811.595 412.394 830.193 404.958 850.819 404.62C850.481 404.62 850.143 404.62 849.805 404.62H851.834C870.093 404.62 886.662 397.183 898.497 384.676C910.332 372.507 918.109 355.606 918.109 337.014C918.109 299.831 888.353 269.408 851.834 269.408H635.087C601.949 265.69 576.251 236.958 576.251 202.141C576.251 183.549 583.69 166.648 595.863 154.479C607.698 142.31 624.267 134.535 642.526 134.535H746.673C764.932 134.535 781.501 127.099 793.336 114.592C805.171 102.423 812.948 85.5212 812.948 66.9296C812.948 29.7465 783.192 -0.676025 746.673 -0.676025H209.033C190.773 3.09348e-05 174.204 7.43665 162.031 19.9437C150.196 32.1127 142.419 49.0141 142.419 67.6057C142.419 104.789 172.175 135.211 208.694 135.211H320.28C317.913 135.211 315.208 135.211 312.841 135.549C345.64 139.268 371.677 168 371.677 202.817C371.677 221.408 364.238 238.31 352.065 250.479C341.583 260.958 328.057 268.056 312.841 269.747C313.179 269.747 313.179 269.747 313.517 269.747C295.596 270.085 279.365 277.521 267.53 289.69C255.696 301.859 247.918 318.761 247.918 337.352C247.918 374.535 277.675 404.958 314.194 404.958H433.556C475.486 404.958 509.638 435.38 509.638 472.563C509.638 491.155 501.184 508.056 487.32 520.225C473.457 532.394 454.521 540.169 433.556 540.169H264.149C227.63 540.169 197.536 570.254 197.536 606.761V608.113C197.536 644.62 227.63 674.704 264.149 674.704H339.216C381.145 674.704 415.297 705.127 415.297 742.31C415.297 760.901 406.844 777.803 392.98 789.972C379.116 802.141 360.18 809.916 339.216 809.916H209.033C190.773 809.916 174.204 817.352 162.369 829.859C150.535 842.028 142.757 858.93 142.757 877.521C142.757 914.704 172.514 945.127 209.033 945.127H225.263C267.192 945.127 301.344 975.549 301.344 1012.73C301.344 1031.32 292.891 1048.23 279.027 1060.39C265.164 1072.56 246.228 1080.34 225.263 1080.34H641.512C641.85 1080.34 642.188 1080.34 642.526 1080.34C600.935 1080 567.459 1049.58 567.459 1012.73C567.459 994.141 575.913 977.24 589.776 965.07C603.302 952.901 621.9 945.465 642.526 945.127C642.188 945.127 641.85 945.127 641.512 945.127H746.673C764.932 945.127 781.501 937.69 793.336 925.183C805.171 913.014 812.948 896.113 812.948 877.521C812.948 840.338 783.192 809.916 746.673 809.916H755.464C755.802 809.916 756.141 809.916 756.479 809.916C714.888 809.578 681.412 779.155 681.412 742.31C681.412 723.718 689.865 706.817 703.729 694.648C717.255 682.479 735.852 675.042 756.479 674.704C756.141 674.704 755.802 674.704 755.464 674.704H1078.05C1114.57 674.704 1144.66 644.62 1144.66 608.113V606.761C1145 569.916 1114.91 539.831 1078.05 539.831Z" fill="#C7C7FF"/>
</g>
<path d="M65.937 402.535C102.353 402.535 131.874 372.418 131.874 335.268C131.874 298.117 102.353 268 65.937 268C29.521 268 0 298.117 0 335.268C0 372.418 29.521 402.535 65.937 402.535Z" fill="#C7C7FF"/>
<defs>
<clipPath id="clip0">
<rect width="1079" height="1080" fill="white" transform="translate(66)"/>
</clipPath>
</defs>
</svg>
