<svg width="17" height="17" viewBox="0 0 17 17" fill="none" xmlns="http://www.w3.org/2000/svg">
<path d="M14.2375 3.11667C13.7947 2.87923 11.0409 1.39683 9.52765 0.447383C9.26925 0.1734 8.90545 0 8.5 0C8.09455 0 7.73075 0.1734 7.47235 0.447383C5.95878 1.39655 3.20535 2.87923 2.7625 3.11667H0V17H17V3.11667H14.2375ZM9.12985 0.851133C9.13098 0.85255 9.13127 0.85425 9.13268 0.855667C9.20153 0.933017 9.27747 1.05003 9.31883 1.2002C9.32223 1.21295 9.3279 1.22485 9.33073 1.23817C9.34263 1.29313 9.35 1.35263 9.35 1.41667C9.35 1.8853 8.96863 2.26667 8.5 2.26667C8.03137 2.26667 7.65 1.8853 7.65 1.41667C7.65 1.35263 7.65737 1.29313 7.66955 1.23817C7.67238 1.22513 7.67777 1.21352 7.68117 1.20077C7.72253 1.05003 7.79847 0.9333 7.86732 0.855667C7.86845 0.85425 7.86873 0.85255 7.87015 0.851133C8.02598 0.678017 8.24925 0.566667 8.5 0.566667C8.75075 0.566667 8.97402 0.678017 9.12985 0.851133ZM7.08503 1.34697C7.0839 1.3702 7.08333 1.39343 7.08333 1.41667C7.08333 2.19782 7.71885 2.83333 8.5 2.83333C9.28115 2.83333 9.91667 2.19782 9.91667 1.41667C9.91667 1.39343 9.9161 1.3702 9.91497 1.34697C10.933 1.95217 12.1915 2.64945 13.0478 3.11667H3.95222C4.80845 2.64945 6.06702 1.95217 7.08503 1.34697ZM2.83333 3.68333H14.1667H16.4333V5.1H0.566667V3.68333H2.83333ZM0.566667 16.4333V5.66667H16.4333V16.4333H0.566667Z" fill="black"/>
<path d="M6.5 9C6.77614 9 7 8.77614 7 8.5C7 8.22386 6.77614 8 6.5 8C6.22386 8 6 8.22386 6 8.5C6 8.77614 6.22386 9 6.5 9Z" fill="black"/>
<path d="M10.5 9C10.7761 9 11 8.77614 11 8.5C11 8.22386 10.7761 8 10.5 8C10.2239 8 10 8.22386 10 8.5C10 8.77614 10.2239 9 10.5 9Z" fill="black"/>
<path d="M12.5 9C12.7761 9 13 8.77614 13 8.5C13 8.22386 12.7761 8 12.5 8C12.2239 8 12 8.22386 12 8.5C12 8.77614 12.2239 9 12.5 9Z" fill="black"/>
<path d="M14.5 9C14.7761 9 15 8.77614 15 8.5C15 8.22386 14.7761 8 14.5 8C14.2239 8 14 8.22386 14 8.5C14 8.77614 14.2239 9 14.5 9Z" fill="black"/>
<path d="M2.5 11C2.77614 11 3 10.7761 3 10.5C3 10.2239 2.77614 10 2.5 10C2.22386 10 2 10.2239 2 10.5C2 10.7761 2.22386 11 2.5 11Z" fill="black"/>
<path d="M4.5 11C4.77614 11 5 10.7761 5 10.5C5 10.2239 4.77614 10 4.5 10C4.22386 10 4 10.2239 4 10.5C4 10.7761 4.22386 11 4.5 11Z" fill="black"/>
<path d="M6.5 11C6.77614 11 7 10.7761 7 10.5C7 10.2239 6.77614 10 6.5 10C6.22386 10 6 10.2239 6 10.5C6 10.7761 6.22386 11 6.5 11Z" fill="black"/>
<path d="M10.5 11C10.7761 11 11 10.7761 11 10.5C11 10.2239 10.7761 10 10.5 10C10.2239 10 10 10.2239 10 10.5C10 10.7761 10.2239 11 10.5 11Z" fill="black"/>
<path d="M12.5 11C12.7761 11 13 10.7761 13 10.5C13 10.2239 12.7761 10 12.5 10C12.2239 10 12 10.2239 12 10.5C12 10.7761 12.2239 11 12.5 11Z" fill="black"/>
<path d="M14.5 11C14.7761 11 15 10.7761 15 10.5C15 10.2239 14.7761 10 14.5 10C14.2239 10 14 10.2239 14 10.5C14 10.7761 14.2239 11 14.5 11Z" fill="black"/>
<path d="M2.5 13C2.77614 13 3 12.7761 3 12.5C3 12.2239 2.77614 12 2.5 12C2.22386 12 2 12.2239 2 12.5C2 12.7761 2.22386 13 2.5 13Z" fill="black"/>
<path d="M4.5 13C4.77614 13 5 12.7761 5 12.5C5 12.2239 4.77614 12 4.5 12C4.22386 12 4 12.2239 4 12.5C4 12.7761 4.22386 13 4.5 13Z" fill="black"/>
<path d="M6.5 13C6.77614 13 7 12.7761 7 12.5C7 12.2239 6.77614 12 6.5 12C6.22386 12 6 12.2239 6 12.5C6 12.7761 6.22386 13 6.5 13Z" fill="black"/>
<path d="M10.5 13C10.7761 13 11 12.7761 11 12.5C11 12.2239 10.7761 12 10.5 12C10.2239 12 10 12.2239 10 12.5C10 12.7761 10.2239 13 10.5 13Z" fill="black"/>
<path d="M12.5 13C12.7761 13 13 12.7761 13 12.5C13 12.2239 12.7761 12 12.5 12C12.2239 12 12 12.2239 12 12.5C12 12.7761 12.2239 13 12.5 13Z" fill="black"/>
<path d="M14.5 13C14.7761 13 15 12.7761 15 12.5C15 12.2239 14.7761 12 14.5 12C14.2239 12 14 12.2239 14 12.5C14 12.7761 14.2239 13 14.5 13Z" fill="black"/>
<path d="M2.5 15C2.77614 15 3 14.7761 3 14.5C3 14.2239 2.77614 14 2.5 14C2.22386 14 2 14.2239 2 14.5C2 14.7761 2.22386 15 2.5 15Z" fill="black"/>
<path d="M4.5 15C4.77614 15 5 14.7761 5 14.5C5 14.2239 4.77614 14 4.5 14C4.22386 14 4 14.2239 4 14.5C4 14.7761 4.22386 15 4.5 15Z" fill="black"/>
<path d="M6.5 15C6.77614 15 7 14.7761 7 14.5C7 14.2239 6.77614 14 6.5 14C6.22386 14 6 14.2239 6 14.5C6 14.7761 6.22386 15 6.5 15Z" fill="black"/>
<path d="M10.5 15C10.7761 15 11 14.7761 11 14.5C11 14.2239 10.7761 14 10.5 14C10.2239 14 10 14.2239 10 14.5C10 14.7761 10.2239 15 10.5 15Z" fill="black"/>
</svg>
