<svg xmlns="http://www.w3.org/2000/svg" xmlns:xlink="http://www.w3.org/1999/xlink" version="1.1" x="0px" y="0px" viewBox="34 -34 100 125" enable-background="new 34 -34 100 100" xml:space="preserve"><g>
    
    <polygon fill="#7971EA" points="128,55 125.5,55 125.5,56 129,56 129,52.5 128,52.5  "/>
    <rect fill="#7971EA" x="116.6" y="55" width="5.9" height="1"/>
    <rect fill="#7971EA" x="107.7" y="55" width="5.9" height="1"/>
    <rect fill="#7971EA" x="98.8" y="55" width="5.9" height="1"/>
    <rect fill="#7971EA" x="89.9" y="55" width="5.9" height="1"/>
    <rect fill="#7971EA" x="81" y="55" width="5.9" height="1"/>
    <rect fill="#7971EA" x="72.1" y="55" width="5.9" height="1"/>
    <rect fill="#7971EA" x="63.2" y="55" width="5.9" height="1"/>
    <rect fill="#7971EA" x="54.4" y="55" width="5.9" height="1"/>
    <rect fill="#7971EA" x="45.5" y="55" width="5.9" height="1"/>
    <polygon fill="#7971EA" points="40,52.5 39,52.5 39,56 42.5,56 42.5,55 40,55  "/>
    <rect fill="#7971EA" x="39" y="43.3" width="1" height="6.1"/>
    <rect fill="#7971EA" x="39" y="34.2" width="1" height="6.1"/>
    <rect fill="#7971EA" x="39" y="25" width="1" height="6.1"/>
    <rect fill="#7971EA" x="39" y="15.9" width="1" height="6.1"/>
    <rect fill="#7971EA" x="39" y="6.7" width="1" height="6.1"/><rect fill="#7971EA" x="39" y="-2.4" width="1" height="6.1"/><polygon fill="#7971EA" points="39,-5.5 40,-5.5 40,-8 42.5,-8 42.5,-9 39,-9  "/><rect fill="#7971EA" x="116.6" y="-9" width="5.9" height="1"/><rect fill="#7971EA" x="109" y="-9" width="4.6" height="1"/><rect fill="#7971EA" x="45.5" y="-9" width="3.5" height="1"/><polygon fill="#7971EA" points="125.5,-9 125.5,-8 128,-8 128,-5.5 129,-5.5 129,-9  "/><rect fill="#7971EA" x="128" y="43.3" width="1" height="6.1"/><rect fill="#7971EA" x="128" y="34.2" width="1" height="6.1"/><rect fill="#7971EA" x="128" y="25" width="1" height="6.1"/><rect fill="#7971EA" x="128" y="15.9" width="1" height="6.1"/><rect fill="#7971EA" x="128" y="6.7" width="1" height="6.1"/><rect fill="#7971EA" x="128" y="-2.4" width="1" height="6.1"/></g><path fill="#7971EA" d="M69-10.8c0-2.3-1.9-4.2-4.2-4.2c-2.3,0-4.2,1.9-4.2,4.2c0,2.3,1.9,4.2,4.2,4.2C67.1-6.5,69-8.4,69-10.8z"/><g><path fill="#7971EA" d="M118.4,28.4l-6.4-5.3c0,0,0-0.1,0-0.1l2.8-1.5c0.4-0.2,0.6-0.6,0.6-1.1c0-0.5-0.3-0.8-0.8-1l-14.7-4.4   c-0.5-0.1-1,0.1-1.2,0.5c-0.2,0.3-0.2,0.7,0,1l7.1,13.5c0.2,0.4,0.6,0.6,1,0.6c0.5,0,0.9-0.3,1.1-0.8l1.1-3.6c0,0,0.1,0,0.1,0   c0,0,0,0,0.1,0l6.6,5.4c0.2,0.2,0.4,0.3,0.7,0.3c0.3,0,0.6-0.1,0.8-0.4l1.4-1.7C118.9,29.4,118.9,28.8,118.4,28.4z M117.8,29.3   l-1.4,1.7c0,0-0.1,0.1-0.1,0l-6.6-5.4c-0.2-0.2-0.5-0.3-0.7-0.3c-0.5,0-0.9,0.3-1,0.8l-1,3.6c0,0.1-0.1,0.1-0.1,0.1   c0,0-0.1,0-0.1-0.1l-7.1-13.5c0,0,0,0,0-0.1c0,0,0.1-0.1,0.1-0.1l14.6,4.4c0.1,0,0.1,0.1,0.1,0.1c0,0.1,0,0.1-0.1,0.1l-2.8,1.5   c-0.3,0.1-0.5,0.4-0.6,0.8c-0.1,0.4,0.1,0.8,0.4,1l6.4,5.3C117.8,29.2,117.8,29.3,117.8,29.3z"/><path fill="#7971EA" d="M92.9,11.3c0.1,0.1,0.2,0.1,0.3,0.1c0.1,0,0.3-0.1,0.4-0.2c0.2-0.2,0.1-0.5-0.1-0.7l-2.8-2.3c-0.2-0.2-0.5-0.1-0.7,0.1   C89.9,8.5,90,8.9,90.2,9L92.9,11.3z"/><path fill="#7971EA" d="M91.9,14.6c0.2,0,0.5-0.2,0.5-0.4c0-0.3-0.1-0.5-0.4-0.6L88.4,13c-0.3,0-0.5,0.1-0.6,0.4c0,0.3,0.1,0.5,0.4,0.6L91.9,14.6   C91.8,14.6,91.8,14.6,91.9,14.6z"/><path fill="#7971EA" d="M92.6,17.3c-0.1-0.3-0.4-0.4-0.6-0.3l-3.3,1.3c-0.3,0.1-0.4,0.4-0.3,0.6c0.1,0.2,0.3,0.3,0.5,0.3c0.1,0,0.1,0,0.2,0   l3.3-1.3C92.6,17.9,92.7,17.6,92.6,17.3z"/><path fill="#7971EA" d="M93.8,20l-2.3,2.8c-0.2,0.2-0.1,0.5,0.1,0.7c0.1,0.1,0.2,0.1,0.3,0.1c0.1,0,0.3-0.1,0.4-0.2l2.3-2.8   c0.2-0.2,0.1-0.5-0.1-0.7C94.3,19.8,94,19.8,93.8,20z"/><path fill="#7971EA" d="M97.4,21.2c-0.3,0-0.5,0.1-0.6,0.4l-0.6,3.6c0,0.3,0.1,0.5,0.4,0.6c0,0,0.1,0,0.1,0c0.2,0,0.5-0.2,0.5-0.4l0.6-3.6   C97.9,21.5,97.7,21.3,97.4,21.2z"/><path fill="#7971EA" d="M104.2,13c0.1,0.2,0.3,0.3,0.5,0.3c0.1,0,0.1,0,0.2,0l3.4-1.3c0.3-0.1,0.4-0.4,0.3-0.6c-0.1-0.3-0.4-0.4-0.6-0.3l-3.4,1.3   C104.2,12.4,104.1,12.7,104.2,13z"/><path fill="#7971EA" d="M102.7,10.5c0.1,0,0.3-0.1,0.4-0.2l2.3-2.8c0.2-0.2,0.1-0.5-0.1-0.7s-0.5-0.1-0.7,0.1l-2.3,2.8c-0.2,0.2-0.1,0.5,0.1,0.7   C102.4,10.5,102.6,10.5,102.7,10.5z"/>
    <path fill="#7971EA" d="M99.4,9.1C99.4,9.1,99.5,9.1,99.4,9.1c0.3,0,0.5-0.2,0.6-0.4l0.6-3.5c0-0.3-0.1-0.5-0.4-0.6c-0.3,0-0.5,0.1-0.6,0.4L99,8.5   C99,8.8,99.1,9,99.4,9.1z"/><path fill="#7971EA" d="M96.5,8.8l-1.3-3.4c-0.1-0.3-0.4-0.4-0.6-0.3c-0.3,0.1-0.4,0.4-0.3,0.6l1.3,3.4c0.1,0.2,0.3,0.3,0.5,0.3c0.1,0,0.1,0,0.2,0   C96.5,9.3,96.6,9,96.5,8.8z"/></g><g><path fill="#7971EA" d="M49-24v38.8V21h52l-0.5-1H50v-4.8L63.1,2.2l7.3,7.3l0.7,0.7l0.7-0.7l20.1-20.1L108,5.5v12.1l1,0.3V5v-29H49z M108,4   L91.9-12L71.1,8.8l-8-8L50,13.8V-23h58V4z"/><path fill="#7971EA" d="M64.8-5.5c2.9,0,5.2-2.4,5.2-5.2c0-2.9-2.4-5.2-5.2-5.2c-2.9,0-5.2,2.4-5.2,5.2C59.5-7.9,61.9-5.5,64.8-5.5z M64.8-15   c2.3,0,4.2,1.9,4.2,4.2c0,2.3-1.9,4.2-4.2,4.2c-2.3,0-4.2-1.9-4.2-4.2C60.5-13.1,62.4-15,64.8-15z"/></g>
</svg>
