<svg width="471" height="95" viewBox="0 0 471 95" fill="none" xmlns="http://www.w3.org/2000/svg">
<path d="M27.1902 95C47.0032 95 57.6474 84.3309 57.6474 62.5388V13.7336H8.00951V33.9367H33.0919V64.1278C33.0919 70.5974 30.2464 74.0024 25.0824 74.0024C20.9723 74.0024 17.2837 71.3919 13.3843 66.1708L0 83.1959C6.11252 90.914 15.7029 95 27.1902 95Z" fill="#7971EA"/>
<path d="M98.7719 94.319C118.374 94.319 132.285 80.9259 132.285 62.0848C132.285 43.2437 118.374 29.9642 98.7719 29.9642C79.275 29.9642 65.2584 43.2437 65.2584 62.0848C65.2584 80.9259 79.275 94.319 98.7719 94.319ZM98.7719 74.3429C93.5025 74.3429 89.3923 70.1434 89.3923 62.0848C89.3923 54.0263 93.5025 49.9403 98.7719 49.9403C104.041 49.9403 108.151 54.0263 108.151 62.0848C108.151 70.1434 104.041 74.3429 98.7719 74.3429Z" fill="#7971EA"/>
<path d="M151.649 26.1051C160.396 26.1051 165.982 20.4301 165.982 12.5986C165.982 5.22103 160.396 0 151.649 0C142.902 0 137.316 5.67503 137.316 13.0526C137.316 20.4301 142.902 26.1051 151.649 26.1051ZM139.74 93.184H163.558V31.0992H139.74V93.184Z" fill="#7971EA"/>
<path d="M214.162 29.9642C207.417 29.9642 201.305 32.3477 196.773 37.2282V31.0992H174.115V93.184H197.932V64.0143C197.932 54.8208 202.043 51.5293 206.89 51.5293C211.211 51.5293 213.951 54.4803 213.951 62.1983V93.184H237.769V57.7718C237.769 38.2497 227.441 29.9642 214.162 29.9642Z" fill="#7971EA"/>
<path d="M337.377 93.184L337.166 13.7336H316.721L293.324 56.0693L269.296 13.7336H248.851V93.184H271.509V58.2258L287.528 86.0334H298.488L314.508 56.9773L314.718 93.184H337.377Z" fill="#7971EA"/>
<path d="M410 62.0848C410 41.0872 395.351 29.9642 378.278 29.9642C359.624 29.9642 345.608 43.2437 345.608 62.0848C345.608 80.5854 359.308 94.319 380.491 94.319C391.979 94.319 400.094 90.914 405.679 84.3309L393.243 70.8244C389.449 73.8889 386.498 75.3644 381.229 75.3644C375.327 75.3644 371.322 72.8674 369.636 68.1003H409.684C409.789 66.2843 410 63.9008 410 62.0848ZM378.489 47.4432C383.337 47.4432 386.815 50.5078 387.763 55.7288H369.215C370.163 50.5078 373.536 47.4432 378.489 47.4432Z" fill="#7971EA"/>
<path d="M450.621 2.90833C451.175 1.31446 452.934 0.490765 454.513 1.08584L467.39 5.93898C468.998 6.54486 469.769 8.37443 469.081 9.94844L443.399 68.6638C442.759 70.1264 441.086 70.8318 439.592 70.2688L431.382 67.1745C429.86 66.6009 429.072 64.9189 429.606 63.3825L450.621 2.90833Z" fill="#7971EA"/>
<circle cx="429.663" cy="85.2283" r="7.5" transform="rotate(20.6506 429.663 85.2283)" fill="#7971EA"/>
</svg>
