<svg width="16" height="16" viewBox="0 0 16 16" fill="none" xmlns="http://www.w3.org/2000/svg">
<path d="M10.3336 9.33346H9.80963L9.62515 9.15328C10.3562 8.3015 10.7289 7.19959 10.6648 6.07891C10.6008 4.95824 10.105 3.90596 9.28167 3.143C8.45832 2.38005 7.37139 1.96576 6.24909 1.98711C5.12679 2.00847 4.05641 2.46382 3.26267 3.25755C2.46894 4.05128 2.0136 5.12166 1.99224 6.24396C1.97088 7.36626 2.38517 8.45319 3.14813 9.27655C3.91108 10.0999 4.96336 10.5956 6.08404 10.6597C7.20472 10.7237 8.30662 10.3511 9.15841 9.62002L9.33859 9.8045V10.3309L12.6721 13.6577L13.6653 12.6646L10.3336 9.33346ZM6.33647 9.33346C5.74307 9.33346 5.163 9.1575 4.66961 8.82782C4.17622 8.49815 3.79167 8.02957 3.56458 7.48134C3.3375 6.93312 3.27809 6.32986 3.39385 5.74787C3.50962 5.16587 3.79537 4.63127 4.21496 4.21168C4.63456 3.79208 5.16915 3.50634 5.75115 3.39057C6.33314 3.2748 6.9364 3.33422 7.48462 3.5613C8.03285 3.78839 8.50143 4.17294 8.8311 4.66633C9.16078 5.15972 9.33674 5.73979 9.33674 6.33319C9.33731 6.72761 9.25999 7.11826 9.10922 7.48273C8.95845 7.84719 8.7372 8.1783 8.45816 8.45706C8.17912 8.73581 7.84779 8.95672 7.48317 9.10712C7.11854 9.25751 6.72782 9.33443 6.3334 9.33346H6.33647Z" fill="#393E46"/>
</svg>
