<svg width="30" height="30" viewBox="0 0 30 30" fill="none" xmlns="http://www.w3.org/2000/svg">
<g clip-path="url(#clip0)">
<path d="M15.0009 29.9997C23.2851 29.9997 30.0007 23.2841 30.0007 14.9999C30.0007 6.71567 23.2851 0 15.0009 0C6.71667 0 0.00100708 6.71567 0.00100708 14.9999C0.00100708 23.2841 6.71667 29.9997 15.0009 29.9997Z" fill="#55ACEE"/>
<path d="M24.1881 10.78C23.5453 11.065 22.8538 11.2578 22.1287 11.3439C22.8691 10.9003 23.4373 10.1984 23.7055 9.36067C23.0127 9.77165 22.245 10.0698 21.4287 10.2305C20.7746 9.53394 19.8428 9.09863 18.8109 9.09863C16.8312 9.09863 15.2255 10.7043 15.2255 12.684C15.2255 12.965 15.2574 13.2386 15.3189 13.5012C12.3391 13.3517 9.69706 11.9244 7.92856 9.75453C7.62 10.284 7.44299 10.9003 7.44299 11.5573C7.44299 12.8009 8.07643 13.8988 9.03795 14.5416C8.4505 14.5231 7.89728 14.3619 7.41411 14.0926C7.41384 14.1079 7.41384 14.1231 7.41384 14.1381C7.41384 15.8753 8.65024 17.3243 10.2901 17.6534C9.98958 17.7358 9.67219 17.7793 9.34571 17.7793C9.11415 17.7793 8.88982 17.7572 8.6711 17.7154C9.12726 19.1395 10.4511 20.1762 12.0204 20.2053C10.7931 21.1671 9.24731 21.7401 7.56705 21.7401C7.27828 21.7401 6.99217 21.7233 6.71222 21.6899C8.29809 22.7075 10.1832 23.3009 12.2078 23.3009C18.8026 23.3009 22.4092 17.8376 22.4092 13.0993C22.4092 12.9439 22.4057 12.7891 22.3987 12.6356C23.0998 12.1303 23.7076 11.499 24.1881 10.78Z" fill="white"/>
</g>
<defs>
<clipPath id="clip0">
<rect width="30" height="30" fill="white"/>
</clipPath>
</defs>
</svg>
