<svg xmlns="http://www.w3.org/2000/svg" width="450.16485" height="450.16485" viewBox="0 0 450.16485 450.16485">
  <defs>
    <style>
      .cls-1 {
        fill: #7971ea;
      }
    </style>
  </defs>
  <title>cinema_three</title>
  <g id="Слой_2" data-name="Слой 2">
    <g id="Capa_1" data-name="Capa 1">
      <g>
        <path class="cls-1" d="M157.57238,239.90067a6.98331,6.98331,0,0,1-6.98368-6.98368V220.69732a6.98368,6.98368,0,0,1,13.96735,0V232.917A6.98331,6.98331,0,0,1,157.57238,239.90067Z"/>
        <path class="cls-1" d="M292.59248,239.90067a6.98331,6.98331,0,0,1-6.98368-6.98368V220.69732a6.98368,6.98368,0,0,1,13.96736,0V232.917A6.98558,6.98558,0,0,1,292.59248,239.90067Z"/>
        <path class="cls-1" d="M225.08243,246.42183a29.02653,29.02653,0,0,1-21.922-9.76232,6.9837,6.9837,0,1,1,10.51788-9.19035,15.53629,15.53629,0,0,0,22.80817,0,6.98486,6.98486,0,0,1,10.51788,9.19388A29.03561,29.03561,0,0,1,225.08243,246.42183Z"/>
        <g>
          <path class="cls-1" d="M439.46729,156.57559a9.38559,9.38559,0,0,0-8.9391-6.52124H306.448a9.37412,9.37412,0,0,0-8.09594,14.10459L401.47759,341.14055a9.36994,9.36994,0,0,0,8.023,4.65287h.073a9.37838,9.37838,0,0,0,8.023-4.5245,223.95086,223.95086,0,0,0,21.8708-184.69333Z"/>
          <path class="cls-1" d="M200.97662,126.60008a9.41279,9.41279,0,0,0,8.13286,4.69859H414.53765a9.37256,9.37256,0,0,0,8.22516-13.86631A224.84935,224.84935,0,0,0,273.40392,5.33076,9.36112,9.36112,0,0,0,263.27433,9.7823L200.996,117.21344A9.39138,9.39138,0,0,0,200.97662,126.60008Z"/>
          <path class="cls-1" d="M330.91953,257.32108a9.3574,9.3574,0,0,0-8.09594-4.66167h-.01846a9.385,9.385,0,0,0-8.096,4.67133L211.23458,435.786a9.39194,9.39194,0,0,0,7.84009,14.08612l2.10662.1187c1.28191.09144,2.5823.17408,3.90114.17408a225.37328,225.37328,0,0,0,167.1448-74.69747,9.396,9.396,0,0,0,1.1175-10.99036Z"/>
          <path class="cls-1" d="M152.052,295.42949a9.35635,9.35635,0,0,0,.01846-9.36906L49.60342,107.63248a9.39967,9.39967,0,0,0-7.986-4.70738c-3.42547-.42115-6.41133,1.63008-8.13286,4.46032a223.98742,223.98742,0,0,0-22.787,186.20383,9.38562,9.38562,0,0,0,8.93911,6.52123H143.93757A9.36439,9.36439,0,0,0,152.052,295.42949Z"/>
          <path class="cls-1" d="M249.18822,323.56479a9.41274,9.41274,0,0,0-8.13286-4.69859H35.62721A9.37256,9.37256,0,0,0,27.402,332.7325,224.84929,224.84929,0,0,0,176.76092,444.8341a9.54032,9.54032,0,0,0,2.0152.21981,9.38529,9.38529,0,0,0,8.1144-4.67133L249.1689,332.95145A9.38717,9.38717,0,0,0,249.18822,323.56479Z"/>
          <path class="cls-1" d="M119.68494,192.00147a9.38719,9.38719,0,0,0,8.1144,4.70739h.01846a9.37382,9.37382,0,0,0,8.11441-4.67135L238.93027,14.3789A9.39193,9.39193,0,0,0,231.0902.29278L228.98357.17409C227.70165.08265,226.40127,0,225.08243,0A225.536,225.536,0,0,0,59.10963,73.40676a9.38617,9.38617,0,0,0-1.20894,10.99915Z"/>
        </g>
      </g>
    </g>
  </g>
</svg>
