<svg xmlns="http://www.w3.org/2000/svg" width="459.90234" height="459.90234" viewBox="0 0 459.90234 459.90234">
  <defs>
    <style>
      .cls-1 {
        fill: #7971ea;
      }
    </style>
  </defs>
  <title>cinema_one</title>
  <g id="Слой_2" data-name="Слой 2">
    <g id="Capa_1" data-name="Capa 1">
      <g>
        <path class="cls-1" d="M264.40736,316.90216a40.10478,40.10478,0,0,0-68.91237,0A95.549,95.549,0,0,0,264.40736,316.90216Z"/>
        <path class="cls-1" d="M142.95106,195.46692c-4.34737,10.9965-7.3158,22.54038-7.3158,34.48425s2.96843,23.48775,7.3158,34.48426a40.10278,40.10278,0,0,0,0-68.96851Z"/>
        <path class="cls-1" d="M195.495,143.00018a40.10478,40.10478,0,0,0,68.91237,0A95.549,95.549,0,0,0,195.495,143.00018Z"/>
        <path class="cls-1" d="M297.31968,229.95117a40.29624,40.29624,0,0,0,19.6316,34.48426c4.34738-10.99651,7.3158-22.54038,7.3158-34.48426s-2.96842-23.48775-7.3158-34.48425A40.29622,40.29622,0,0,0,297.31968,229.95117Z"/>
        <path class="cls-1" d="M229.95117,0C103.64926,0,0,103.64926,0,229.95117S103.64926,459.90234,229.95117,459.90234c56.07376,0,107.43523-21.22108,147.29493-54.793h.91579c29.72284,0,54.793,25.07021,54.793,54.793h26.9474c0-36.61408-25.51933-68.165-58.96148-78.07378,35.993-40.47374,58.96148-93.58258,58.96148-151.87739C459.90234,103.64926,356.25309,0,229.95117,0Zm0,54.79305a67.36851,67.36851,0,1,1-67.36851,67.36851A67.44894,67.44894,0,0,1,229.95117,54.79305Zm19.05266,175.15812-19.05266,19.05266-19.05265-19.05266,19.05265-19.05265Zm-194.21078,0a67.36851,67.36851,0,1,1,67.36851,67.36851A67.44894,67.44894,0,0,1,54.79305,229.95117ZM229.95117,405.10929a67.36851,67.36851,0,1,1,67.36851-67.36851A67.44894,67.44894,0,0,1,229.95117,405.10929Zm40.42111-175.15812a67.36851,67.36851,0,1,1,67.3685,67.36851A67.44894,67.44894,0,0,1,270.37228,229.95117Z"/>
      </g>
    </g>
  </g>
</svg>
