<svg xmlns="http://www.w3.org/2000/svg" width="409.57812" height="459.90234" viewBox="0 0 409.57812 459.90234">
  <defs>
    <style>
      .cls-1 {
        fill: #7971ea;
      }
    </style>
  </defs>
  <title>cinema_two</title>
  <g id="Слой_2" data-name="Слой 2">
    <g id="Capa_1" data-name="Capa 1">
      <path class="cls-1" d="M397.37441,0H311.8941A12.2134,12.2134,0,0,0,299.654,12.20368v9.03909H109.94225V12.20368A12.19026,12.19026,0,0,0,97.7022,0H12.22187A12.23278,12.23278,0,0,0,0,12.20368V447.6441a12.25608,12.25608,0,0,0,12.24006,12.24007H97.684a12.25611,12.25611,0,0,0,12.24-12.24007V428.72929H299.67222v18.933a12.26781,12.26781,0,0,0,12.24006,12.24006h85.48034a12.24467,12.24467,0,0,0,12.1855-12.24006V12.20368A12.24068,12.24068,0,0,0,397.37441,0ZM291.725,68.30985V200.36973H117.8895V68.30985ZM85.935,418.87181H25.46223V358.34444H85.935Zm0-104.08594H25.46223V254.33129H85.935Zm0-102.66734H25.46223V151.60938H85.935ZM25.46223,107.99622v-60.491l60.4.09094.09093,60.4ZM117.8895,381.68045V243.55913H291.70832V381.68045Zm267.68135,37.19136H325.06169V358.34444h60.50916Zm0-104.08594H325.06169V254.33129h60.50916Zm0-102.66734H325.06169V151.60938h60.50916Zm0-104.12231H325.06169v-60.491h60.50916Z"/>
    </g>
  </g>
</svg>
