<svg xmlns="http://www.w3.org/2000/svg" width="464.04099" height="461.35692" viewBox="0 0 464.04099 461.35692">
  <defs>
    <style>
      .cls-1 {
        fill: #7971ea;
      }
    </style>
  </defs>
  <title>popcorn</title>
  <g id="Слой_2" data-name="Слой 2">
    <g id="Capa_1" data-name="Capa 1">
      <g>
        <g>
          <ellipse class="cls-1" cx="172.96764" cy="275.80323" rx="58.85927" ry="83.17285"/>
          <polygon class="cls-1" points="322.84 106.587 298.82 461.357 286.56 461.357 304.79 104.467 322.84 106.587"/>
          <polygon class="cls-1" points="393.35 114.837 357.52 461.357 337.95 461.357 378.55 113.107 393.35 114.837"/>
          <polygon class="cls-1" points="356.85 110.567 324.52 461.357 312.2 461.357 346.6 109.367 356.85 110.567"/>
          <path class="cls-1" d="M368.46149,79.42357a13.447,13.447,0,0,0-1.41561.149A13.95644,13.95644,0,0,0,347.691,81.79946a19.74987,19.74987,0,0,0-33.83371-10.84467A14.10882,14.10882,0,0,0,299.842,58.21437a13.96331,13.96331,0,0,0-10.646,4.94219A17.29772,17.29772,0,0,0,276.91092,58.024a17.59687,17.59687,0,0,0-4.30476.60432,12.412,12.412,0,0,0,.25663-2.4918,14.10993,14.10993,0,0,0-25.4974-8.36943,23.39791,23.39791,0,0,0-43.26278-1.2252c-.31458-.01656-.60432-.08279-.91063-.08279A16.92312,16.92312,0,0,0,189.04424,54.1c-.18212,0-.356-.04967-.52981-.04967a16.18985,16.18985,0,0,0-15.95243,13.56A18.13561,18.13561,0,0,0,141.65882,64.15a13.92307,13.92307,0,0,0-6.52336-1.66395,14.11831,14.11831,0,0,0-13.40269,9.8016,23.10135,23.10135,0,0,0-10.08307-2.35934,23.47691,23.47691,0,0,0-23.4692,23.4692c0,6.41574,2.45868,13.73383,6.64754,17.97236l164.2016-17.2273L382.452,108.2406V91.45205h-.14072A14.02629,14.02629,0,0,0,368.46149,79.42357Z"/>
          <path class="cls-1" d="M130.1402,461.35692h-24.82l-32.55-341.16,28.32-2.93,9.88995,117.19a120.78,120.78,0,0,0-7.2,41.35c0,22.49,5.89,43.12,15.68994,59.3Z"/>
          <path class="cls-1" d="M282.28021,101.8369l-13.3,359.52H236.59021l2.93-166.22a120.91791,120.91791,0,0,0,.6-33.72l2.8-158.83,24.35-2.51Z"/>
          <path class="cls-1" d="M211.77667,105.815l-27.9892,2.88915,1.9537,74.85308a61.33588,61.33588,0,0,1,27.16135,15.48058Z"/>
          <path class="cls-1" d="M216.10016,461.35692h-23.06l-2.49-94.81a63.99,63.99,0,0,0,24.2-15.83Z"/>
          <path class="cls-1" d="M158.406,111.32843l-23.76722,2.4504,3.69216,80.68934a58.56986,58.56986,0,0,1,23.00561-11.16754Z"/>
          <path class="cls-1" d="M172.69019,461.35692h-22.16l-4.53-99a54.54074,54.54074,0,0,0,22.94,7.05Z"/>
        </g>
        <path class="cls-1" d="M40.04991,21.733l-.04167-.07437a2.01466,2.01466,0,0,1-.04357-1.877A13.7137,13.7137,0,0,0,27.68656.00011L27.632,0A13.74748,13.74748,0,0,0,16.14256,6.19943a2.02177,2.02177,0,0,1-1.67519.93265q-.07019,0-.141-.00529-.26619-.01989-.53311-.02947a13.79328,13.79328,0,1,0,0,27.58655q.34154-.01041.682-.03778c.05781-.00463.11555-.00694.1729-.00694a2.05825,2.05825,0,0,1,1.7056.88783,13.7414,13.7414,0,0,0,11.32161,5.93883,14.36177,14.36177,0,0,0,12.18975-7.05863A12.33767,12.33767,0,0,0,40.04991,21.733Z"/>
        <path class="cls-1" d="M462.597,58.12771l-.03626-.0647a1.75272,1.75272,0,0,1-.0379-1.633A11.93077,11.93077,0,0,0,451.841,39.22033l-.04746-.00009a11.96018,11.96018,0,0,0-9.9957,5.39343,1.75892,1.75892,0,0,1-1.45739.8114q-.06106,0-.12265-.00461-.23158-.01729-.46381-.02563a12,12,0,0,0,0,24q.29713-.00908.59329-.03287c.0503-.004.10053-.006.15042-.006a1.79066,1.79066,0,0,1,1.48386.7724,11.95486,11.95486,0,0,0,9.84967,5.16671,12.49456,12.49456,0,0,0,10.605-6.14093A10.73363,10.73363,0,0,0,462.597,58.12771Z"/>
        <path class="cls-1" d="M316.597,33.52081l-.03626-.0647a1.7527,1.7527,0,0,1-.0379-1.633A11.93078,11.93078,0,0,0,305.841,14.61343l-.04746-.00009a11.96018,11.96018,0,0,0-9.9957,5.39343,1.75892,1.75892,0,0,1-1.45739.8114q-.06106,0-.12265-.0046-.23158-.01731-.46381-.02564a12,12,0,1,0,0,24q.29713-.00906.59329-.03287c.0503-.004.10053-.006.15042-.006a1.79066,1.79066,0,0,1,1.48386.7724,11.95487,11.95487,0,0,0,9.84967,5.16672,12.49456,12.49456,0,0,0,10.605-6.14093A10.73365,10.73365,0,0,0,316.597,33.52081Z"/>
        <path class="cls-1" d="M188.74047,51.55821l-.03625-.0647a1.7527,1.7527,0,0,1-.03791-1.633,11.93078,11.93078,0,0,0-10.68182-17.20969l-.04746-.00009a11.96015,11.96015,0,0,0-9.99569,5.39343,1.75894,1.75894,0,0,1-1.4574.8114q-.06106,0-.12265-.0046-.23158-.01731-.46381-.02564a12,12,0,0,0,0,24q.29713-.00906.5933-.03287c.05029-.004.10052-.006.15042-.006a1.79065,1.79065,0,0,1,1.48385.7724,11.95487,11.95487,0,0,0,9.84967,5.16672,12.49456,12.49456,0,0,0,10.605-6.14093A10.73363,10.73363,0,0,0,188.74047,51.55821Z"/>
      </g>
    </g>
  </g>
</svg>
