<svg xmlns="http://www.w3.org/2000/svg" width="510.40188" height="398.85582" viewBox="0 0 510.40188 398.85582">
  <defs>
    <style>
      .cls-1 {
        fill: #7971ea;
      }
    </style>
  </defs>
  <title>cubes</title>
  <g id="Слой_2" data-name="Слой 2">
    <g id="Layer_1" data-name="Layer 1">
      <g>
        <path class="cls-1" d="M508.46688,178.23461,454.46224,23.13471a34.472,34.472,0,0,0-43.887-21.21864l-155.11,54.00465a34.46008,34.46008,0,0,0-21.19837,43.887l54.00464,155.11a34.439,34.439,0,0,0,43.887,21.20854l155.08976-54.00464a34.46,34.46,0,0,0,21.21863-43.887ZM307.03674,123.85486a20.27741,20.27741,0,1,1,12.47978-25.82127A20.273,20.273,0,0,1,307.03674,123.85486Zm36.66883,105.31261a20.27262,20.27262,0,1,1,12.4798-25.81111A20.273,20.273,0,0,1,343.70557,229.16747ZM412.34936,87.1759a20.27263,20.27263,0,1,1,12.47976-25.81113A20.27307,20.27307,0,0,1,412.34936,87.1759Zm36.679,105.32275A20.2743,20.2743,0,1,1,461.498,166.68753,20.28807,20.28807,0,0,1,449.02832,192.49865Z"/>
        <path class="cls-1" d="M198.70305,165.694H34.4689A34.50489,34.50489,0,0,0,0,200.16289v164.224a34.5049,34.5049,0,0,0,34.4689,34.46891H198.70305a34.50489,34.50489,0,0,0,34.46889-34.46891V200.173A34.51356,34.51356,0,0,0,198.70305,165.694ZM60.82746,358.31432a20.27583,20.27583,0,1,1,20.27582-20.27583A20.27024,20.27024,0,0,1,60.82746,358.31432Zm0-111.517a20.27582,20.27582,0,1,1,20.27582-20.27582A20.27024,20.27024,0,0,1,60.82746,246.79728ZM116.586,305.94187a20.27582,20.27582,0,1,1,20.27582-20.27582A20.27024,20.27024,0,0,1,116.586,305.94187Zm55.75851,52.37245a20.27583,20.27583,0,1,1,20.27582-20.27583A20.27025,20.27025,0,0,1,172.34448,358.31432Zm0-111.517a20.27582,20.27582,0,1,1,20.27582-20.27582A20.27024,20.27024,0,0,1,172.34448,246.79728Z"/>
      </g>
    </g>
  </g>
</svg>
