<svg xmlns="http://www.w3.org/2000/svg" width="501.40252" height="325.34196" viewBox="0 0 501.40252 325.34196">
  <defs>
    <style>
      .cls-1 {
        fill: #7971ea;
      }
    </style>
  </defs>
  <title>playstation</title>
  <g id="Слой_2" data-name="Слой 2">
    <g id="Layer_1" data-name="Layer 1">
      <path class="cls-1" d="M500.42952,268.7002,463.01735,79.21126c-4.56412-23.1131-16.90332-42.85579-34.74576-55.59165-1.9057-1.36094-3.85721-2.60295-5.83613-3.76692.048-.5692.07778-1.14479.07778-1.728C422.51324,8.11451,415.25639,0,406.30426,0H373.88748c-7.80363,0-14.31469,6.16776-15.8578,14.38076l-28.56532,7.0516H171.94l-28.5653-7.0516C141.83156,6.16774,135.31936,0,127.51687,0H95.0978c-8.95211,0-16.209,8.11451-16.209,18.12465,0,.58325.02974,1.15886.07778,1.728-1.97778,1.16524-3.92927,2.40725-5.835,3.76692C55.288,36.35547,42.94886,56.09687,38.38587,79.21L.97369,268.7002A49.84033,49.84033,0,0,0,6.42434,303.082c5.86245,10.27106,14.953,17.37513,25.59462,20.00106,22.02795,5.43612,44.637.95674,63.65652-12.61563,19.01722-13.57495,32.16856-34.61718,37.03354-59.2511l3.87207-19.611a54.68839,54.68839,0,0,0,19.63723,12.6348,50.22244,50.22244,0,0,0,17.34713,3.10434c20.21488,0,37.94866-12.08863,47.73238-30.13784q1.42584-2.62851,2.61837-5.42331h54.11645q1.2474,2.76283,2.72932,5.3632c9.905,17.40709,27.299,28.98921,47.07808,28.98921a50.19606,50.19606,0,0,0,17.12523-3.01992,54.59781,54.59781,0,0,0,19.65781-12.52351l4.0711,20.624c4.865,24.63521,18.01632,45.67744,37.03355,59.2511A77.703,77.703,0,0,0,450.987,325.342a76.84385,76.84385,0,0,0,18.39724-2.25886c10.64165-2.626,19.731-9.73,25.59462-20.00106A49.85194,49.85194,0,0,0,500.42952,268.7002ZM419.25707,72.49992a17.51963,17.51963,0,1,1-17.51963,17.51963A17.51987,17.51987,0,0,1,419.25707,72.49992Zm-309.88949,53.684h1.56012l-3.83726,2.27714a17.09062,17.09062,0,1,1-34.18123,0l3.83726-2.27714h-6.1144a17.09064,17.09064,0,0,1,0-34.18127h6.1144l-3.83726-2.27714a17.09062,17.09062,0,1,1,34.18123,0l3.83726,2.27714h-1.56012a17.09064,17.09064,0,0,1,0,34.18127ZM167.58135,215.676A33.83071,33.83071,0,1,1,201.412,181.84526,33.82978,33.82978,0,0,1,167.58135,215.676Zm83.1203-48.93046a17.51963,17.51963,0,1,1,17.51963-17.51963A17.51988,17.51988,0,0,1,250.70165,166.74551Zm-57.09329-57.99758A10.57051,10.57051,0,0,1,183.038,98.17755V46.81967A10.57051,10.57051,0,0,1,193.60838,36.2493H307.79624a10.57051,10.57051,0,0,1,10.57038,10.57037V98.17755a10.57053,10.57053,0,0,1-10.57038,10.57038ZM335.03065,215.676a33.83071,33.83071,0,1,1,33.82949-33.83071A33.83005,33.83005,0,0,1,335.03065,215.676ZM373.948,117.81024a17.51963,17.51963,0,1,1,17.51963,17.51963A17.519,17.519,0,0,1,373.948,117.81024Zm45.31032,45.30907A17.51963,17.51963,0,1,1,436.778,145.59968,17.51986,17.51986,0,0,1,419.25832,163.11931Zm27.79073-27.79069A17.51963,17.51963,0,1,1,464.56868,117.809,17.51986,17.51986,0,0,1,447.04905,135.32862Z"/>
    </g>
  </g>
</svg>
