<svg xmlns="http://www.w3.org/2000/svg" width="491.30729" height="491.3646" viewBox="0 0 491.30729 491.3646">
  <defs>
    <style>
      .cls-1 {
        fill: #7971ea;
      }
    </style>
  </defs>
  <title>xbox</title>
  <g id="Слой_2" data-name="Слой 2">
    <g id="Layer_1" data-name="Layer 1">
      <path class="cls-1" d="M109.43612,41.68541c-.24824.191-.43919.401-.66833.592a29.70573,29.70573,0,0,1,4.71658-3.91457C151.94264,13.36683,196.3778,0,245.6823,0A244.31421,244.31421,0,0,1,371.86515,34.88742c2.67335,1.58492,9.96782,6.58794,13.72964,11.13266v.01909C350.01991,6.81708,245.45313,90.97081,245.45313,90.97081,209.28631,63.09143,176.022,44.09144,151.25518,37.33164,130.55572,31.66029,116.23412,36.396,109.43612,41.68541Zm316.45012,37.0834c-1.08843-1.203-2.27235-2.32965-3.36082-3.57086-8.994-9.87235-20.05022-12.25929-30.01808-11.61-9.07036,2.84522-50.98491,17.94974-102.63815,66.71956,0,0,58.14571,56.54169,93.75875,114.34368,35.57488,57.802,56.8472,103.2301,43.76681,166.28334a245.61715,245.61715,0,0,0-1.50851-332.16568ZM337.13049,269.34157c-15.77287-17.7015-39.2412-43.06028-70.23313-73.88035Q256.729,185.35017,245.43406,174.418s-11.32362,11.32362-26.06531,26.21808V200.617c-18.86632,19.05728-43.32762,43.91958-56.9045,58.43214-24.17486,25.798-93.43413,106.82-97.32961,152.24817,0,0-15.41-36.03314,18.408-119.13664,22.09346-54.32661,88.85121-135.90246,116.7306-162.48334,0,0-25.47335-28.03214-57.43917-47.395l-.191-.05729s-.36281-.28643-.93567-.64924C126.33562,72.41,109.5507,65.34468,93.39593,64.409c-16.49848,1.16484-26.9437,13.23317-26.9437,13.23317A244.79066,244.79066,0,0,0,0,245.6823C0,381.35561,109.9899,491.3646,245.6823,491.3646a245.18921,245.18921,0,0,0,181.75066-80.411c-.01909-.07637-5.17487-32.46231-38.22915-78.92156C381.432,321.1476,353.037,287.17674,337.13049,269.34157Z"/>
    </g>
  </g>
</svg>
