<svg xmlns="http://www.w3.org/2000/svg" width="488.593" height="488.83804" viewBox="0 0 488.593 488.83804">
  <defs>
    <style>
      .cls-1 {
        fill: #7971ea;
      }
    </style>
  </defs>
  <title>ball</title>
  <g id="Слой_2" data-name="Слой 2">
    <g id="Capa_1" data-name="Capa 1">
      <g id="_14" data-name="14">
        <g>
          <path class="cls-1" d="M264.197,39.487c5.529-7.328,4.64-22.871,3.853-36.582-.03-.591-.063-1.169-.096-1.756C260.204.409,252.359,0,244.419,0a243.75973,243.75973,0,0,0-86.406,15.766,569.1521,569.1521,0,0,1,81.814,48.49C251.079,54.573,259.565,45.634,264.197,39.487Z"/>
          <path class="cls-1" d="M388.04,178.955a161.881,161.881,0,0,0-30.896,6.111c41.537,72.522,57.732,164.145,61.695,230.522a243.5249,243.5249,0,0,0,69.754-161.393C460.239,219.343,422.677,175.026,388.04,178.955Z"/>
          <path class="cls-1" d="M141.109,116.356c29.185-6.073,56.604-20.762,78.466-36.267-45.608-31.412-83.648-47.714-91.215-50.817A245.359,245.359,0,0,0,21.151,144.987c28.632-11.408,59.641-17.212,90.098-22.867C121.102,120.29,131.287,118.399,141.109,116.356Z"/>
          <path class="cls-1" d="M310.048,123.463q3.90751,3.927,7.783,7.994a259.87273,259.87273,0,0,1,26.082,32.493c11.537-4.356,25.119-7.445,41.377-9.283,38.307-4.333,72.369,26.012,101.604,59.42A243.39823,243.39823,0,0,0,426.54,81.456a347.02784,347.02784,0,0,0-57.435,11.726C355.937,97.115,334.966,107.801,310.048,123.463Z"/>
          <path class="cls-1" d="M277.888,249.688c10.025-33.955,21.637-58.432,44.135-74.32a228.545,228.545,0,0,0-21.889-27.054c-3.641-3.824-7.323-7.517-11.021-11.145C198.85,198.608,75.207,311.469,63.964,409.255a243.8706,243.8706,0,0,0,146.712,77.211c21.053-41.915,40.868-127.124,52.646-177.801C268.981,284.324,273.865,263.307,277.888,249.688Z"/>
          <path class="cls-1" d="M175.545,195.843a871.73944,871.73944,0,0,1,95.107-75.908c-10.133-8.965-20.297-17.229-30.275-24.808-25.249,18.98-58.307,37.674-94.291,45.158-10.077,2.097-20.396,4.014-30.372,5.866-38.438,7.138-75.336,14.051-106.366,31.364A244.17,244.17,0,0,0,43.839,384.024C61.72,313.227,123.052,244.214,175.545,195.843Z"/>
          <path class="cls-1" d="M291.706,105.975c29.078-18.538,54.147-31.356,70.412-36.211a361.10112,361.10112,0,0,1,42.502-9.856,243.49722,243.49722,0,0,0-111.986-55.127c.938,17.07,1.347,35.811-8.922,49.427-4.879,6.466-13.133,15.334-23.873,24.955C270.357,87.35,281.046,96.278,291.706,105.975Z"/>
          <path class="cls-1" d="M301.327,256.609c-3.816,12.928-8.63,33.625-14.199,57.588-16.444,70.755-32.179,134.067-50.555,174.442,2.609.083,5.217.199,7.846.199a243.29307,243.29307,0,0,0,150.885-52.206c-1.641-69.461-18.293-167.71-60.238-240.643C318.798,208.08,310.042,227.101,301.327,256.609Z"/>
        </g>
      </g>
    </g>
  </g>
</svg>
