<svg xmlns="http://www.w3.org/2000/svg" width="477.13608" height="477.12949" viewBox="0 0 477.13608 477.12949">
  <defs>
    <style>
      .cls-1 {
        fill: #7971ea;
      }
    </style>
  </defs>
  <title>football</title>
  <g id="Слой_2" data-name="Слой 2">
    <g id="Capa_1" data-name="Capa 1">
      <path class="cls-1" d="M148.80216,17.45805a238.50376,238.50376,0,0,0-78.92382,389.7997,238.37749,238.37749,0,0,0,337.39259,0,238.37747,238.37747,0,0,0,0-337.39259A238.90073,238.90073,0,0,0,148.80216,17.45805ZM59.62635,339.00124a163.75652,163.75652,0,0,1-31.45481-25.30363,224.91227,224.91227,0,0,1-7.2588-125.33137,200.36489,200.36489,0,0,1,15.28238-25.34976c1.77349-2.49872,3.41513-5.10292,5.31389-7.52912l53.83777,31.857v1.35155a414.71642,414.71642,0,0,0,8.6565,86.031c.01978.13186.03955.20437.06593.32305L62.31626,340.51761C61.40644,340.05611,60.50321,339.555,59.62635,339.00124ZM219.70241,449.67657a204.98856,204.98856,0,0,0,28.65941,11.99911,223.73427,223.73427,0,0,1-121.046-29.3187l90.25045,16.0801C218.25855,448.87881,218.964,449.30078,219.70241,449.67657Zm-.32967-16.2911-106.502-18.981a332.57569,332.57569,0,0,1-33.30083-48.247c-2.45257-4.35133-5.18863-8.57738-7.2654-13.11992l41.7134-65.40174c.923.23076,1.9515.47469,3.11844.78456a692.204,692.204,0,0,0,79.39192,15.83619c1.56252.21757,2.86792.40876,3.98213.52745l50.0007,86.45292q-13.01445,18.29534-26.41783,36.327C222.60328,429.56156,221.021,431.4801,219.37274,433.38547ZM396.564,396.55741a221.91815,221.91815,0,0,1-26.89912,22.94994,204.45226,204.45226,0,0,0-8.06314-36.6764l53.34989-99.52669c14.69561-6.69181,28.8704-14.28027,42.02983-23.68835a18.8,18.8,0,0,0,4.25905-4.07442A222.31038,222.31038,0,0,1,396.564,396.55741Zm-2.36687-129.07614c1.98446,3.78434,3.94256,7.60822,5.90725,11.48487l-51.53023,96.12473c-.29667.06592-.58018.13186-.87685.17142a470.0223,470.0223,0,0,1-84.2509,8.1027l-51.42475-88.91868q12.0057-22.29067,23.80043-44.7066c5.34028-10.12671,10.58822-20.31937,15.82961-30.50542l106.42946-10.93106C371.11536,227.4227,383.46388,246.95093,394.19716,267.48127ZM372.60534,153.46335c-5.05016,13.33748-10.45635,26.5365-15.8296,39.76189L253.09553,203.8728c-1.23947-1.635-2.52509-3.24371-3.87665-4.77986q-18.36455-20.79737-36.86759-41.46286c.11207-.13845.22416-.24394.33623-.3692q-7.44671-7.43682-14.90658-14.88681l28.86379-86.90125a40.48131,40.48131,0,0,1,6.01933-1.18673c15.69115-1.59548,31.40207-3.40194,47.13276-4.31176a229.24839,229.24839,0,0,1,29.11432-.15823l71.4145,80.49293C377.8665,138.07549,375.46668,145.86172,372.60534,153.46335ZM396.564,80.57205a222.45512,222.45512,0,0,1,45.74168,66.23905,226.79133,226.79133,0,0,0-42.61-22.89721c-2.3339-.96256-4.72712-1.813-7.1599-2.65035L322.242,42.03644a92.92336,92.92336,0,0,0,.8505-10.30473A222.37283,222.37283,0,0,1,396.564,80.57205ZM167.025,27.57158c.2769.20439.40876.3758.567.42195,16.06694,5.55124,30.68343,13.72646,44.46264,23.42464l-26.965,81.205a2.89571,2.89571,0,0,0-.40218.13845c-5.51827,2.28115-11.142,4.325-16.57459,6.7973-22.383,10.17286-44.20552,21.44017-64.76223,34.94906L50.13914,143.02678a16.0817,16.0817,0,0,1,.9296-4.85239c3.57336-9.52018,7.08739-19.09309,11.12885-28.42206A213.12524,213.12524,0,0,1,72.72648,88.83959c2.53168-2.79539,5.15566-5.56442,7.85876-8.26752a222.1115,222.1115,0,0,1,86.93422-53.81139C167.35463,27.01778,167.18321,27.28809,167.025,27.57158Z"/>
    </g>
  </g>
</svg>
