<svg xmlns="http://www.w3.org/2000/svg" width="479.74915" height="409.28399" viewBox="0 0 479.74915 409.28399">
  <defs>
    <style>
      .cls-1 {
        fill: #7971ea;
      }
    </style>
  </defs>
  <title>racing</title>
  <g id="Слой_2" data-name="Слой 2">
    <g id="Capa_1" data-name="Capa 1">
      <g>
        <path class="cls-1" d="M275.10668,181.175a23.46747,23.46747,0,1,0,23.46748,23.46748A23.49388,23.49388,0,0,0,275.10668,181.175Z"/>
        <path class="cls-1" d="M290.65076,110.03986v42.31826a54.74621,54.74621,0,0,1,29.3594,21.35262l40.25027-13.0788A96.13856,96.13856,0,0,0,290.65076,110.03986Z"/>
        <path class="cls-1" d="M369.88917,190.18905l-40.26246,13.08256c.01124.45727.0356.91172.0356,1.37085a54.266,54.266,0,0,1-11.26287,33.143l24.85893,34.21406a95.81709,95.81709,0,0,0,26.6308-81.8105Z"/>
        <path class="cls-1" d="M275.10668,0H86.00738a15.54315,15.54315,0,1,0,0,31.0863h80.79478a206.16334,206.16334,0,0,0-45.61374,38.84851H15.54315a15.5441,15.5441,0,0,0,0,31.08819H98.703a204.23649,204.23649,0,0,0,9.39167,221.75508H63.99322a15.54317,15.54317,0,0,0,0,31.08633h71.2307a205.9367,205.9367,0,0,0,31.57824,24.33325H17.14638a15.54317,15.54317,0,0,0,0,31.08633h257.9603c112.84153,0,204.64247-91.80279,204.64247-204.64245S387.94726,0,275.10668,0Zm75.50254,306.64557c-.28578.24174-.5697.48537-.878.70745-.34669.25206-.70181.48723-1.06068.7065a126.71331,126.71331,0,0,1-147.12773,0q-.53973-.3289-1.0607-.7065c-.30735-.224-.59126-.46757-.878-.70745a126.95852,126.95852,0,1,1,151.00508,0Z"/>
        <path class="cls-1" d="M189.95291,160.631l40.24935,13.0788a54.76476,54.76476,0,0,1,29.36031-21.35262V110.03893A96.14446,96.14446,0,0,0,189.95291,160.631Z"/>
        <path class="cls-1" d="M293.265,256.07973a54.41183,54.41183,0,0,1-36.3167,0l-24.86454,34.22155a95.72918,95.72918,0,0,0,86.0458,0Z"/>
        <path class="cls-1" d="M220.552,204.64244c0-.45914.02249-.91359.03373-1.37084L180.32325,190.189A95.81914,95.81914,0,0,0,206.955,272.00141l24.85892-34.21592A54.269,54.269,0,0,1,220.552,204.64244Z"/>
      </g>
    </g>
  </g>
</svg>
