<svg xmlns="http://www.w3.org/2000/svg" width="473.5993" height="343.93295" viewBox="0 0 473.5993 343.93295">
  <defs>
    <style>
      .cls-1 {
        fill: #7971ea;
      }
    </style>
  </defs>
  <title>running</title>
  <g id="Слой_2" data-name="Слой 2">
    <g id="Capa_1" data-name="Capa 1">
      <g>
        <path class="cls-1" d="M350.97091,195.46977l-9.65619,3.22066L265.63788,100.301l19.4543-14.60593ZM129.96176,0l47.53661,25.5162a15.93183,15.93183,0,0,1,7.93,18.25814l-6.98292,23.54384L129.90094,38.21059,113.08805,28.12ZM79.88513,80.71346l4.32993-6.76281,27.82454,20.691a48.43731,48.43731,0,0,1,18.85766,45.6685L129.843,164.75475,54.26176,121.18894ZM439.77078,327.01869H315.8072L19.80764,162.95037l17.09094-32.1342L317.13949,292.06931a8.54063,8.54063,0,0,0,4.23146,1.12376H473.5993A33.82674,33.82674,0,0,1,439.77078,327.01869Zm33.82852-50.73988H323.63005l-58.00665-33.397L285.124,222.996a8.45636,8.45636,0,0,0-12.07458-11.84l-22.5649,23.00513-32.13709-18.52169,32.22977-25.78267a8.45956,8.45956,0,0,0-10.57141-13.20992L202.6004,206.5741l-27.5378-15.83395L216.8385,155.924a8.46068,8.46068,0,1,0-10.82338-13.00719l-46.58373,38.8275-13.0709-7.52743,1.367-32.46727a64.93889,64.93889,0,0,0-25.6002-60.72045L93.31517,59.60539l10.88421-17.09093,74.863,44.91547a8.25245,8.25245,0,0,0,3.27569,1.05424c.19984,0,.37941.06951.57925.08689.20274.01448.33307.05793.49237.05793a8.318,8.318,0,0,0,3.06136-.56767L272.14,55.02348a5.13419,5.13419,0,0,1,4.71224.5474,5.06928,5.06928,0,0,1,2.207,4.22856v9.30574L248.61646,91.93654a8.45641,8.45641,0,0,0-1.68274,11.84288c.02028.02317.03766.04923.055.0724l84.57131,109.94559a8.41383,8.41383,0,0,0,9.36945,2.86442l23.77555-7.92421,75.99542,5.42762a35.52384,35.52384,0,0,1,32.89882,35.28535Z"/>
        <path class="cls-1" d="M50.73989,225.53313H8.46a8.45713,8.45713,0,1,0,0,16.91426H50.73989a8.45713,8.45713,0,1,0,0-16.91426Z"/>
        <path class="cls-1" d="M0,284.733a8.459,8.459,0,0,0,8.46,8.46H118.39982a8.45713,8.45713,0,1,0,0-16.91426H8.46A8.45591,8.45591,0,0,0,0,284.733Z"/>
        <path class="cls-1" d="M211.42826,327.01869H8.46a8.45713,8.45713,0,1,0,0,16.91426H211.42826a8.45713,8.45713,0,1,0,0-16.91426Z"/>
      </g>
    </g>
  </g>
</svg>
