<svg xmlns="http://www.w3.org/2000/svg" width="594.35507" height="594.35507" viewBox="0 0 594.35507 594.35507">
  <defs>
    <style>
      .cls-1 {
        fill: #7971ea;
      }

      .cls-2 {
        fill: #fff;
      }
    </style>
  </defs>
  <title>coffee</title>
  <g id="Слой_2" data-name="Слой 2">
    <g id="Слой_2-2" data-name="Слой 2">
      <g>
        <g>
          <circle class="cls-1" cx="297.17754" cy="297.17754" r="297.17754"/>
          <path class="cls-2" d="M489.408,467.76994s-28.68514-28.51-41.24159-40.81332a8.77476,8.77476,0,0,1-.63268-11.74855c59.74532-75.913,53.91486-186.5946-17.618-255.64531-71.36733-68.9047-186.70166-71.06558-260.43427-4.70136C87.39736,228.74,84.8958,355.27784,161.98652,432.36854c63.63878,63.63881,160.96583,73.01231,234.56215,28.16928a9.99953,9.99953,0,0,1,12.55646,1.51843c12.60509,13.28649,42.43884,43.568,42.43884,43.568a26.77045,26.77045,0,0,0,37.864-37.85427Z"/>
          <circle class="cls-1" cx="297.17754" cy="297.17754" r="150.87199"/>
        </g>
        <path class="cls-2" d="M377.26537,234.51465a10.25469,10.25469,0,0,1-7.27-3.01287,108.71572,108.71572,0,0,0-28.08251-20.30867,10.28027,10.28027,0,0,1,9.22373-18.3755,128.96715,128.96715,0,0,1,33.40906,24.14418,10.28288,10.28288,0,0,1-7.28028,17.55286Z"/>
        <path class="cls-2" d="M209.33579,234.51465a10.28286,10.28286,0,0,1-7.27-17.55284A128.37879,128.37879,0,0,1,307.239,179.91261a10.28588,10.28588,0,1,1-2.21082,20.45262,108.21866,108.21866,0,0,0-88.4224,31.13653A10.21177,10.21177,0,0,1,209.33579,234.51465Z"/>
      </g>
    </g>
  </g>
</svg>
