<svg xmlns="http://www.w3.org/2000/svg" width="594.35507" height="594.35507" viewBox="0 0 594.35507 594.35507">
  <defs>
    <style>
      .cls-1 {
        fill: #7971ea;
      }

      .cls-2 {
        fill: #fff;
      }
    </style>
  </defs>
  <title>heart_coffee</title>
  <g id="Слой_2" data-name="Слой 2">
    <g id="Слой_2-2" data-name="Слой 2">
      <g>
        <g>
          <circle class="cls-1" cx="297.17754" cy="297.17754" r="297.17754"/>
          <path class="cls-2" d="M489.408,467.76994s-28.68514-28.51-41.24159-40.81332a8.77476,8.77476,0,0,1-.63268-11.74855c59.74532-75.913,53.91486-186.5946-17.618-255.64531-71.36733-68.9047-186.70166-71.06558-260.43427-4.70136C87.39736,228.74,84.8958,355.27784,161.98652,432.36854c63.63878,63.63881,160.96583,73.01231,234.56215,28.16928a9.99953,9.99953,0,0,1,12.55646,1.51843c12.60509,13.28649,42.43884,43.568,42.43884,43.568a26.77045,26.77045,0,0,0,37.864-37.85427Z"/>
          <circle class="cls-1" cx="297.17754" cy="297.17754" r="150.87199"/>
        </g>
        <path class="cls-2" d="M366.79667,269.09528c-2.03921-22.44478-17.92573-38.72893-37.80738-38.72893a37.58178,37.58178,0,0,0-32.19754,18.55174c-6.76245-11.57167-18.39322-18.55443-31.42645-18.55443-19.879,0-35.76818,16.28416-37.80471,38.72894-.1612.99139-.82213,6.209,1.18753,14.7178a63.12837,63.12837,0,0,0,19.34163,32.27545l48.66975,44.16683,49.50533-44.16414a63.13591,63.13591,0,0,0,19.34163-32.27814C367.61612,275.30427,366.95519,270.08668,366.79667,269.09528Z"/>
      </g>
    </g>
  </g>
</svg>
