<svg xmlns="http://www.w3.org/2000/svg" width="594.35507" height="594.35507" viewBox="0 0 594.35507 594.35507">
  <defs>
    <style>
      .cls-1 {
        fill: #7971ea;
      }

      .cls-2 {
        fill: #fff;
      }
    </style>
  </defs>
  <title>smile_coffee</title>
  <g id="Слой_2" data-name="Слой 2">
    <g id="Слой_2-2" data-name="Слой 2">
      <g>
        <g>
          <circle class="cls-1" cx="297.17754" cy="297.17754" r="297.17754"/>
          <path class="cls-2" d="M489.408,467.76994s-28.68514-28.51-41.24159-40.81332a8.77476,8.77476,0,0,1-.63268-11.74855c59.74532-75.913,53.91486-186.5946-17.618-255.64531-71.36733-68.9047-186.70166-71.06558-260.43427-4.70136C87.39736,228.74,84.8958,355.27784,161.98652,432.36854c63.63878,63.63881,160.96583,73.01231,234.56215,28.16928a9.99953,9.99953,0,0,1,12.55646,1.51843c12.60509,13.28649,42.43884,43.568,42.43884,43.568a26.77045,26.77045,0,0,0,37.864-37.85427Z"/>
          <circle class="cls-1" cx="297.17754" cy="297.17754" r="150.87199"/>
        </g>
        <g>
          <path class="cls-2" d="M270.51634,299.00136a5.66782,5.66782,0,0,1-5.67107-5.67107,24.739,24.739,0,1,0-49.47787,0,5.67107,5.67107,0,0,1-11.34214,0,36.0811,36.0811,0,1,1,72.16215,0A5.66781,5.66781,0,0,1,270.51634,299.00136Z"/>
          <path class="cls-2" d="M379.33,299.00136a5.66782,5.66782,0,0,1-5.67107-5.67107,24.739,24.739,0,1,0-49.47787,0,5.67107,5.67107,0,1,1-11.34213,0,36.08109,36.08109,0,1,1,72.16214,0A5.66781,5.66781,0,0,1,379.33,299.00136Z"/>
          <path class="cls-2" d="M361.94392,343.73557a66.45905,66.45905,0,0,1-128.43419,0,13.5316,13.5316,0,0,1,12.93106-17.11166H349.11017A13.42749,13.42749,0,0,1,361.94392,343.73557Z"/>
          <path class="cls-1" d="M331.77333,374.965a10.556,10.556,0,0,1-.09732,1.75,66.04754,66.04754,0,0,1-67.86273.09732,11.755,11.755,0,0,1-.09732-1.84729c0-16.04174,15.16705-29.07013,34.02868-29.07013C316.509,345.89491,331.77333,358.9233,331.77333,374.965Z"/>
          <path class="cls-2" d="M198.36527,243.08816a5.65852,5.65852,0,0,1-5.06187-8.19647c6.81193-13.63494,28.6101-36.67366,62.40392-26.18439a5.67195,5.67195,0,0,1-3.3672,10.83263c-32.88556-10.20128-48.25947,19.18416-48.9019,20.43578A5.67275,5.67275,0,0,1,198.36527,243.08816Z"/>
          <path class="cls-2" d="M395.98876,242.15775a5.67275,5.67275,0,0,1-5.07295-3.11245c-.64242-1.2627-16.116-30.63706-48.9019-20.43578a5.67195,5.67195,0,0,1-3.3672-10.83263c33.79382-10.50034,55.58092,12.54945,62.40392,26.18439a5.65852,5.65852,0,0,1-5.06187,8.19647Z"/>
        </g>
      </g>
    </g>
  </g>
</svg>
