<svg xmlns="http://www.w3.org/2000/svg" width="594.35507" height="594.35507" viewBox="0 0 594.35507 594.35507">
  <defs>
    <style>
      .cls-1 {
        fill: #7971ea;
      }

      .cls-2 {
        fill: #fff;
      }
    </style>
  </defs>
  <title>smoke_coffee</title>
  <g id="Слой_2" data-name="Слой 2">
    <g id="Слой_2-2" data-name="Слой 2">
      <g>
        <g>
          <circle class="cls-1" cx="297.17754" cy="297.17754" r="297.17754"/>
          <path class="cls-2" d="M489.408,467.76994s-28.68514-28.51-41.24159-40.81332a8.77476,8.77476,0,0,1-.63268-11.74855c59.74532-75.913,53.91486-186.5946-17.618-255.64531-71.36733-68.9047-186.70166-71.06558-260.43427-4.70136C87.39736,228.74,84.8958,355.27784,161.98652,432.36854c63.63878,63.63881,160.96583,73.01231,234.56215,28.16928a9.99953,9.99953,0,0,1,12.55646,1.51843c12.60509,13.28649,42.43884,43.568,42.43884,43.568a26.77045,26.77045,0,0,0,37.864-37.85427Z"/>
          <circle class="cls-1" cx="297.17754" cy="297.17754" r="150.87199"/>
        </g>
        <path class="cls-2" d="M257.05715,248.7088s-33.1449-60.883-8.32336-100.02466,6.67943-75.95351,5.68416-77.54479,52.69544,62.50763,28.90166,100.3213C257.65894,212.24123,257.05715,248.7088,257.05715,248.7088Z"/>
        <path class="cls-2" d="M322.49252,321.03229s-33.1449-60.883-8.32336-100.02466,6.67943-75.95351,5.68416-77.54479,52.69544,62.50762,28.90166,100.3213C323.09431,284.56472,322.49252,321.03229,322.49252,321.03229Z"/>
      </g>
    </g>
  </g>
</svg>
